<?xml version="1.0" standalone="no"?>
<!DOCTYPE svg PUBLIC "-//W3C//DTD SVG 20010904//EN"
 "http://www.w3.org/TR/2001/REC-SVG-20010904/DTD/svg10.dtd">
<svg version="1.0" xmlns="http://www.w3.org/2000/svg"
 width="1280.000000pt" height="1001.000000pt" viewBox="0 0 1280.000000 1001.000000"
 preserveAspectRatio="xMidYMid meet">
<g transform="translate(0.000000,1001.000000) scale(0.100000,-0.100000)"
fill="#000000" stroke="none">
<path d="M9884 9695 c0 -55 1 -76 3 -47 2 29 2 74 0 100 -2 26 -3 2 -3 -53z"/>
<path d="M9650 9756 c0 -29 33 -216 37 -212 3 2 -3 53 -12 113 -16 102 -25
137 -25 99z"/>
<path d="M9426 9733 c56 -234 222 -766 223 -720 2 42 28 5 59 -84 18 -52 75
-209 127 -349 97 -262 115 -320 98 -320 -14 0 -84 163 -157 365 -6 15 -9 16
-15 6 -5 -8 -14 -10 -22 -6 -8 6 -11 4 -7 -6 4 -8 16 -38 29 -67 12 -29 19
-56 15 -60 -16 -15 -61 63 -227 392 -103 202 -174 334 -179 326 -5 -8 -16 -1
-35 22 -31 37 -28 32 132 -261 120 -220 155 -290 151 -309 -3 -14 -9 -11 -30
13 -81 92 -83 95 67 -115 134 -187 235 -338 235 -351 0 -16 -27 -9 -41 10 -8
10 -95 119 -193 241 -127 157 -181 218 -187 208 -6 -9 -76 55 -252 232 -134
135 -278 283 -322 330 -43 47 -73 76 -67 65 14 -27 160 -183 429 -461 242
-250 268 -280 254 -288 -12 -8 -62 35 -311 269 -113 106 -221 205 -240 220
-19 15 30 -35 110 -110 255 -243 343 -334 337 -349 -4 -10 19 -35 66 -72 130
-104 337 -286 348 -305 17 -32 -7 -23 -94 36 -77 52 -79 53 -37 15 30 -28 41
-43 32 -47 -10 -4 -9 -10 5 -26 18 -20 18 -20 -17 -13 l-35 6 48 -30 c26 -16
47 -32 47 -36 0 -16 -67 10 -240 92 -102 48 -251 117 -331 154 -132 60 -511
264 -581 312 -16 11 -28 17 -28 13 0 -20 235 -150 568 -316 211 -104 385 -196
389 -205 3 -8 27 -26 54 -40 27 -13 49 -29 49 -35 0 -15 -64 -39 -102 -39 -82
0 -350 92 -519 178 -246 125 -416 228 -529 319 l-55 45 61 -59 c34 -32 109
-87 165 -123 209 -130 593 -309 754 -350 52 -14 78 -28 71 -39 -2 -3 24 -6 57
-6 34 0 85 -3 112 -8 48 -7 49 -7 15 5 -78 29 -29 72 52 47 55 -18 62 -44 16
-58 -30 -8 -28 -9 27 -10 68 -1 97 -13 78 -32 -7 -7 -68 -32 -135 -55 -104
-36 -115 -42 -73 -38 l50 5 -24 -20 c-28 -25 -528 -284 -596 -308 -39 -15 -49
-15 -53 -5 -3 10 -16 3 -41 -21 -24 -24 -87 -58 -189 -103 -84 -37 -150 -69
-148 -71 2 -3 57 19 121 47 86 38 124 51 145 47 18 -4 32 -1 41 9 20 24 200
121 474 255 407 198 555 260 555 233 0 -4 -55 -81 -123 -173 -68 -91 -144
-195 -169 -231 -79 -114 -342 -521 -403 -625 -122 -209 -362 -715 -450 -951
-104 -280 -280 -733 -319 -823 -24 -56 -77 -154 -117 -219 -83 -133 -97 -152
-113 -149 -6 1 -12 -14 -14 -33 -4 -41 -18 -61 -37 -54 -8 4 -17 -7 -25 -30
-12 -39 -180 -206 -206 -206 -10 0 -41 52 -85 143 -81 165 -81 148 0 -33 84
-189 82 -200 -89 -560 -89 -188 -109 -245 -92 -262 31 -31 132 62 243 223 73
107 96 129 110 109 8 -11 9 -7 6 15 -4 22 9 58 53 145 59 118 104 219 134 303
10 26 33 71 52 99 21 30 32 58 29 68 -3 11 7 35 29 62 24 33 32 52 29 71 -3
17 43 146 150 414 86 213 191 485 235 603 97 260 83 228 249 584 174 375 190
403 554 964 146 225 356 501 374 492 6 -3 9 -16 7 -30 -3 -24 -3 -24 12 -5 27
37 28 7 2 -109 -28 -122 -33 -164 -13 -106 7 19 17 33 22 30 11 -6 11 -11 3
-210 -4 -80 -5 -136 -2 -125 8 28 24 43 26 24 1 -7 4 68 7 168 6 177 12 213
32 183 6 -10 8 10 7 62 -2 46 1 78 7 79 6 1 34 -58 64 -130 30 -73 59 -131 67
-131 7 0 24 -15 39 -32 17 -22 6 7 -35 91 -79 162 -81 206 -5 119 l37 -43 -42
63 c-23 35 -39 66 -36 69 3 3 80 -67 172 -156 91 -89 211 -200 266 -248 97
-84 233 -234 263 -293 8 -16 15 -42 15 -58 0 -26 3 -29 29 -28 l28 1 -43 64
c-43 61 -54 91 -35 91 14 0 119 -89 131 -110 22 -42 3 -87 -30 -70 -16 9 -16
6 2 -28 14 -28 17 -50 14 -92 -5 -50 -4 -52 6 -22 16 46 38 42 38 -9 0 -24 4
-38 10 -34 20 12 46 -6 89 -61 41 -52 43 -59 38 -102 -4 -34 -3 -41 3 -24 11
27 27 28 53 5 17 -16 17 -14 -3 25 -17 32 -21 51 -15 80 6 33 5 35 -7 18 -23
-30 -50 -15 -95 52 -31 45 -43 74 -43 99 0 29 -3 33 -13 24 -20 -16 -27 -3
-27 49 0 26 3 50 7 53 12 13 33 -16 33 -46 0 -31 0 -31 16 -9 15 21 16 21 47
6 18 -9 52 -30 75 -47 41 -27 43 -31 38 -66 -5 -31 -4 -33 6 -13 15 30 38 28
84 -9 50 -40 74 -53 74 -40 0 6 -19 22 -43 35 -24 14 -53 37 -66 50 -41 44 -4
37 74 -15 42 -27 79 -48 81 -46 2 2 -30 28 -72 58 -83 59 -101 81 -80 98 10 9
26 4 68 -17 85 -45 168 -101 168 -113 0 -8 4 -8 15 1 26 21 17 34 -48 67 -64
34 -253 152 -302 189 -15 11 -26 26 -24 33 3 7 62 -24 151 -78 81 -50 162 -98
179 -107 l32 -16 -22 30 c-22 31 -275 206 -576 397 -206 131 -459 304 -511
349 -40 35 -41 58 -2 38 13 -6 88 -49 168 -96 80 -46 147 -80 148 -75 2 5 10
9 18 9 20 0 134 -58 241 -123 48 -29 128 -75 176 -101 69 -38 88 -52 84 -66
-4 -14 17 -29 97 -71 55 -28 121 -64 145 -78 79 -45 35 -6 -73 65 -58 38 -106
75 -106 82 0 6 2 12 5 12 3 0 58 -27 123 -59 64 -33 130 -63 147 -66 l30 -7
-27 21 c-14 12 -59 39 -100 62 -40 23 -113 67 -163 99 -49 32 -154 89 -232
128 -136 69 -172 92 -139 92 8 0 86 -28 173 -61 190 -74 436 -163 506 -184
108 -32 22 7 -196 89 -290 109 -327 125 -327 142 0 8 4 14 9 14 5 0 92 -25
193 -56 195 -59 379 -106 386 -100 4 5 -4 7 -359 110 -255 73 -339 103 -339
118 0 13 16 9 373 -89 170 -46 310 -83 312 -81 2 2 5 12 7 22 3 18 -25 26
-312 92 -322 73 -908 228 -924 245 -31 29 62 21 343 -32 153 -29 178 -33 170
-25 -2 2 -69 16 -149 31 -229 42 -280 55 -280 71 0 18 18 18 207 -6 205 -26
330 -47 423 -70 41 -10 131 -30 200 -45 69 -14 172 -39 230 -56 58 -16 116
-29 128 -29 19 0 20 3 10 25 -7 16 -27 30 -60 41 -49 16 -53 27 -13 37 11 3
-5 5 -35 6 -90 2 -254 27 -466 70 -220 45 -354 66 -487 76 -57 5 -93 13 -103
23 -13 12 -37 14 -137 10 -68 -3 -132 -1 -142 3 -19 6 -18 8 5 18 23 11 23 11
-10 7 -19 -3 -67 -10 -106 -17 -105 -19 -104 -20 -105 113 0 62 -4 160 -8 218
-5 63 -4 116 2 133 6 19 5 37 -3 56 -6 16 -18 82 -25 148 l-14 118 5 -100 c2
-55 9 -201 15 -324 11 -222 8 -284 -12 -264 -11 11 -58 392 -84 673 -14 155
-67 656 -79 750 -2 19 -2 -12 0 -69 3 -57 14 -176 24 -265 23 -185 25 -263 9
-268 -9 -3 -7 -30 5 -100 21 -126 82 -554 91 -640 6 -57 5 -68 -8 -68 -16 0
-39 83 -98 365 -32 153 -42 187 -39 125 3 -51 1 -62 -9 -55 -12 7 -67 173
-136 410 -30 105 -52 170 -49 145 6 -40 5 -43 -9 -31 -13 10 -97 257 -214 624
-16 52 -49 69 -37 20z m482 -1484 l-3 -24 -18 27 c-11 15 -16 32 -12 39 12 18
37 -15 33 -42z m-20 -216 c46 -23 57 -48 16 -40 -47 9 -124 45 -124 58 0 16
60 6 108 -18z m537 -78 c66 -8 85 -14 85 -27 0 -8 -27 -9 -85 -5 -91 6 -138
22 -114 38 8 5 25 7 39 5 14 -3 48 -8 75 -11z m425 -600 c208 -132 411 -277
422 -301 18 -39 -4 -53 -45 -30 l-32 19 23 -25 c21 -23 29 -48 16 -48 -22 0
-124 76 -124 92 0 14 34 9 60 -8 64 -43 -19 24 -195 156 -196 148 -245 188
-245 202 0 16 18 7 120 -57z"/>
<path d="M9307 9612 c3 -12 9 -25 14 -28 14 -8 11 10 -6 32 -13 18 -14 18 -8
-4z"/>
<path d="M9330 9567 c0 -3 12 -32 26 -64 34 -76 112 -272 184 -458 31 -83 67
-168 79 -190 26 -47 23 -34 -15 55 -15 36 -51 130 -79 210 -97 267 -195 492
-195 447z"/>
<path d="M9691 9504 c0 -11 3 -14 6 -6 3 7 2 16 -1 19 -3 4 -6 -2 -5 -13z"/>
<path d="M9711 9415 c0 -5 8 -41 19 -80 11 -38 18 -54 15 -34 -6 39 -33 130
-34 114z"/>
<path d="M8891 9395 c8 -11 41 -51 74 -90 33 -38 127 -152 209 -252 82 -101
151 -183 153 -183 6 0 -73 101 -228 290 -118 144 -239 280 -208 235z"/>
<path d="M9851 9364 c0 -11 3 -14 6 -6 3 7 2 16 -1 19 -3 4 -6 -2 -5 -13z"/>
<path d="M9190 9180 c67 -88 124 -160 127 -160 3 0 1 6 -4 13 -6 6 -60 78
-122 160 -62 81 -114 147 -117 147 -3 0 50 -72 116 -160z"/>
<path d="M9290 9290 c6 -11 13 -20 16 -20 2 0 0 9 -6 20 -6 11 -13 20 -16 20
-2 0 0 -9 6 -20z"/>
<path d="M9861 9284 c0 -11 3 -14 6 -6 3 7 2 16 -1 19 -3 4 -6 -2 -5 -13z"/>
<path d="M10013 9250 c0 -30 2 -43 4 -27 2 15 2 39 0 55 -2 15 -4 2 -4 -28z"/>
<path d="M9651 9254 c0 -11 3 -14 6 -6 3 7 2 16 -1 19 -3 4 -6 -2 -5 -13z"/>
<path d="M9751 9244 c0 -11 3 -14 6 -6 3 7 2 16 -1 19 -3 4 -6 -2 -5 -13z"/>
<path d="M9661 9220 c0 -8 4 -24 9 -35 5 -13 9 -14 9 -5 0 8 -4 24 -9 35 -5
13 -9 14 -9 5z"/>
<path d="M9762 9200 c0 -14 2 -19 5 -12 2 6 2 18 0 25 -3 6 -5 1 -5 -13z"/>
<path d="M8795 9170 c10 -11 20 -20 23 -20 3 0 -3 9 -13 20 -10 11 -20 20 -23
20 -3 0 3 -9 13 -20z"/>
<path d="M9771 9154 c0 -11 3 -14 6 -6 3 7 2 16 -1 19 -3 4 -6 -2 -5 -13z"/>
<path d="M8870 9105 c19 -19 36 -35 39 -35 3 0 -10 16 -29 35 -19 19 -36 35
-39 35 -3 0 10 -16 29 -35z"/>
<path d="M4155 9087 c-13 -10 -15 -16 -6 -21 12 -8 41 10 41 25 0 13 -13 11
-35 -4z"/>
<path d="M3942 8964 c-44 -45 -54 -58 -32 -46 27 15 32 15 40 2 7 -10 10 -11
10 -2 0 7 19 34 42 60 24 26 39 44 34 40 -5 -4 -14 -4 -20 1 -7 5 -34 -15 -74
-55z"/>
<path d="M8630 9025 c0 -5 109 -87 215 -160 39 -27 66 -44 60 -37 -14 15 -275
202 -275 197z"/>
<path d="M3945 8710 c-30 -61 -88 -163 -129 -228 -40 -64 -117 -199 -171 -300
-88 -163 -125 -212 -118 -156 2 16 1 16 -8 -3 -6 -12 -19 -23 -28 -26 -11 -3
-26 -35 -45 -98 -15 -52 -37 -116 -48 -142 -18 -42 -24 -48 -45 -43 -22 6 -23
4 -23 -47 0 -76 -26 -157 -50 -157 -10 0 -46 25 -80 56 -33 31 -58 49 -54 40
5 -12 0 -16 -17 -16 -26 0 -124 60 -297 179 -59 41 -97 63 -84 50 26 -30 28
-44 5 -35 -14 6 -12 2 5 -17 29 -31 28 -41 -5 -33 -17 4 -3 -8 34 -29 34 -20
65 -40 68 -45 10 -17 -42 -11 -95 10 -62 24 -60 24 -60 1 0 -63 -161 -22 -940
239 -146 48 -281 91 -300 94 -19 3 39 -19 130 -49 287 -95 374 -128 395 -150
15 -16 46 -26 115 -39 52 -9 154 -34 225 -56 72 -21 208 -60 304 -85 192 -51
219 -61 203 -77 -17 -17 -245 16 -393 55 -110 29 -127 32 -136 18 -8 -13 -26
-12 -154 8 -79 12 -191 33 -247 47 -125 29 -118 29 -118 4 0 -23 -9 -21 241
-51 99 -11 236 -31 305 -44 69 -13 195 -30 280 -39 282 -29 355 -38 374 -48
18 -10 18 -11 2 -20 -15 -8 -156 -3 -752 27 -104 5 -112 4 -116 -13 -5 -18
-22 -20 -306 -27 -165 -4 -372 -4 -459 -1 -98 4 -152 3 -143 -2 8 -5 241 -13
520 -16 611 -8 986 -19 995 -28 17 -17 -11 -28 -71 -28 -36 0 -64 -4 -64 -10
0 -5 6 -10 14 -10 8 0 16 -6 19 -13 4 -12 28 -11 139 5 73 10 160 21 193 24
54 6 59 5 45 -9 -37 -39 -559 -115 -600 -88 -12 8 -9 12 13 20 16 6 38 11 50
12 12 0 17 3 10 6 -13 5 -493 -35 -793 -66 l-175 -18 118 -2 c123 -1 144 -10
85 -36 -44 -19 -37 -18 78 5 194 41 348 60 477 60 150 0 166 -14 46 -41 -49
-11 -64 -17 -42 -18 17 -1 33 -6 35 -12 2 -7 18 -6 51 3 39 10 50 10 56 0 6
-10 35 -4 130 28 115 38 231 70 259 70 6 0 12 -6 12 -14 0 -14 -59 -42 -365
-169 -196 -82 -548 -242 -660 -300 -59 -31 -64 -35 -35 -31 l35 5 -24 -20
c-13 -12 -76 -51 -140 -87 -64 -36 -118 -68 -120 -70 -3 -2 0 -9 6 -15 9 -9
32 0 90 33 43 25 115 64 161 88 65 33 80 45 71 56 -17 21 52 64 286 179 297
147 519 226 501 180 -5 -13 -1 -13 32 1 20 9 73 31 117 49 44 18 139 61 210
95 72 34 153 70 180 80 28 10 58 21 68 25 11 5 17 3 17 -7 0 -7 -48 -54 -107
-103 -91 -77 -103 -90 -84 -93 19 -3 46 18 127 99 71 71 107 100 118 96 14 -6
13 -13 -8 -69 -18 -49 -21 -66 -11 -75 8 -7 14 -82 18 -244 18 -634 18 -638
38 -636 18 1 19 18 19 352 0 335 6 402 29 367 8 -14 13 -77 28 -352 7 -127 8
-132 16 -80 12 72 13 115 5 170 -8 49 2 77 22 65 17 -11 92 -172 126 -271 25
-73 29 -79 44 -65 15 15 14 21 -11 76 -24 54 -69 206 -175 585 -20 69 -37 130
-39 136 -2 6 0 16 4 23 14 22 491 -227 712 -372 25 -17 27 -17 33 -1 4 9 5 18
4 19 -6 4 -164 93 -241 135 -53 30 -82 51 -81 62 1 12 -35 29 -148 69 -152 54
-208 81 -208 99 0 5 10 10 23 11 12 0 -4 6 -36 13 -113 24 -94 48 48 60 67 6
83 11 100 31 42 50 180 94 293 95 53 0 69 -13 31 -25 -11 -4 -19 -8 -17 -10 2
-2 80 16 173 39 176 45 265 60 470 75 100 8 124 7 148 -6 23 -12 31 -12 37 -3
5 8 18 10 33 6 16 -4 27 -1 30 7 3 9 -9 17 -38 25 -48 13 -62 34 -38 58 16 16
16 16 -2 11 -11 -4 -135 -34 -275 -67 -305 -72 -541 -110 -565 -90 -23 19 -6
30 55 37 29 3 61 14 70 23 9 9 88 35 175 59 88 24 168 47 180 51 18 8 18 9 2
9 -34 2 -11 26 47 49 31 12 112 38 179 57 67 19 114 34 105 34 -10 1 -18 7
-18 15 0 13 102 62 240 116 30 12 57 24 60 27 8 9 -45 -5 -182 -48 -91 -28
-126 -43 -122 -53 6 -15 -55 -44 -322 -149 -493 -195 -621 -226 -431 -103 112
72 137 85 247 122 52 18 85 33 73 33 -55 2 3 50 85 71 145 37 231 71 420 165
195 98 251 135 202 135 -23 0 -236 -90 -424 -179 -70 -34 -134 -61 -142 -61
-28 0 -13 21 41 56 30 20 55 39 55 41 0 5 24 19 -240 -142 -250 -154 -300
-179 -315 -164 -7 7 3 22 30 46 72 62 462 342 643 460 97 64 182 120 187 126
47 44 -427 -250 -564 -351 -41 -30 -140 -107 -220 -171 -174 -139 -245 -185
-267 -177 -15 6 -15 9 2 28 22 24 7 18 -43 -20 -68 -51 -54 -13 27 72 129 135
642 623 767 730 62 53 114 100 116 104 2 4 1 19 -2 34 -6 27 -7 27 -53 -32
-62 -77 -222 -218 -328 -290 -126 -85 -197 -123 -205 -110 -13 21 26 67 313
370 l184 195 -168 -170 c-93 -94 -236 -246 -318 -338 -109 -122 -154 -166
-166 -162 -13 4 -33 -16 -75 -72 -111 -148 -165 -205 -165 -173 0 5 72 117
160 250 88 132 158 240 156 240 -5 0 -171 -237 -220 -315 -88 -138 -140 -189
-160 -156 -4 5 5 31 18 58 14 26 34 73 45 104 12 31 46 96 76 145 30 49 85
142 122 207 38 64 94 152 126 195 42 56 53 78 42 80 -19 4 -19 11 5 66 35 82
11 49 -45 -64z m215 -434 c0 -23 -586 -596 -610 -596 -17 0 -2 21 100 137 53
59 130 149 172 198 108 128 173 188 253 234 78 45 85 47 85 27z"/>
<path d="M8920 8816 c0 -2 14 -14 30 -26 17 -12 30 -19 30 -16 0 2 -13 14 -30
26 -16 12 -30 19 -30 16z"/>
<path d="M3603 8750 c-29 -34 -29 -36 -10 -36 14 1 23 -7 28 -24 l7 -25 1 25
c1 14 10 39 20 57 18 29 18 31 2 36 -11 3 -28 -9 -48 -33z"/>
<path d="M8560 8770 c8 -5 20 -10 25 -10 6 0 3 5 -5 10 -8 5 -19 10 -25 10 -5
0 -3 -5 5 -10z"/>
<path d="M9020 8746 c0 -2 14 -14 30 -26 17 -12 30 -19 30 -16 0 2 -13 14 -30
26 -16 12 -30 19 -30 16z"/>
<path d="M6322 8700 c0 -19 2 -27 5 -17 2 9 2 25 0 35 -3 9 -5 1 -5 -18z"/>
<path d="M9871 8674 c0 -11 3 -14 6 -6 3 7 2 16 -1 19 -3 4 -6 -2 -5 -13z"/>
<path d="M4129 8663 c-13 -16 -12 -17 4 -4 9 7 17 15 17 17 0 8 -8 3 -21 -13z"/>
<path d="M9120 8676 c0 -2 62 -48 137 -103 76 -54 145 -104 155 -111 10 -7 18
-11 18 -8 0 7 -156 123 -247 185 -35 23 -63 40 -63 37z"/>
<path d="M2080 8656 c0 -2 8 -10 18 -17 15 -13 16 -12 3 4 -13 16 -21 21 -21
13z"/>
<path d="M6313 8625 c0 -22 2 -30 4 -17 2 12 2 30 0 40 -3 9 -5 -1 -4 -23z"/>
<path d="M4093 8618 c-26 -29 -156 -218 -150 -218 3 0 33 39 68 88 34 48 73
102 87 120 28 37 25 43 -5 10z"/>
<path d="M5580 8617 c0 -27 131 -469 137 -463 3 2 -7 41 -21 86 -14 44 -42
145 -62 223 -19 78 -40 146 -45 152 -5 5 -9 6 -9 2z"/>
<path d="M8870 8616 c0 -3 9 -10 20 -16 11 -6 20 -8 20 -6 0 3 -9 10 -20 16
-11 6 -20 8 -20 6z"/>
<path d="M3765 8579 c-9 -17 -15 -33 -13 -35 3 -2 12 12 21 31 21 43 13 47 -8
4z"/>
<path d="M2175 8570 c10 -11 20 -20 23 -20 3 0 -3 9 -13 20 -10 11 -20 20 -23
20 -3 0 3 -9 13 -20z"/>
<path d="M8940 8576 c0 -3 14 -12 30 -21 17 -9 30 -13 30 -11 0 3 -13 12 -30
21 -16 9 -30 13 -30 11z"/>
<path d="M1715 8546 c17 -14 61 -47 98 -73 56 -39 70 -45 77 -33 6 8 10 17 9
20 0 10 -145 95 -159 93 -8 -1 -23 3 -35 8 -12 6 -8 0 10 -15z"/>
<path d="M6302 8540 c0 -19 2 -27 5 -17 2 9 2 25 0 35 -3 9 -5 1 -5 -18z"/>
<path d="M6775 8523 c-135 -388 -214 -646 -251 -822 -26 -122 -29 -131 -46
-131 -8 0 -9 63 -5 213 4 169 3 193 -5 117 -5 -52 -7 -265 -5 -472 2 -208 0
-378 -3 -378 -4 0 -12 10 -18 23 l-11 22 0 -22 c-1 -32 -15 -36 -38 -10 -43
46 -103 191 -134 322 -18 78 -19 78 -14 23 3 -31 16 -88 30 -126 14 -38 25
-75 25 -81 0 -24 -21 -9 -53 39 -34 51 -35 51 -40 23 -4 -21 2 -36 24 -61 33
-37 39 -68 12 -58 -10 3 24 -33 75 -82 50 -48 92 -91 92 -95 0 -41 -255 168
-449 369 -79 82 -138 139 -130 127 30 -50 -6 -32 -79 38 -43 40 5 -9 108 -111
102 -102 223 -214 268 -249 107 -85 111 -105 9 -56 -77 38 -28 3 111 -78 107
-62 147 -97 111 -97 -41 0 -251 101 -444 214 -216 127 -335 188 -335 172 0 -8
-5 -16 -11 -18 -13 -4 189 -115 271 -149 67 -27 91 -46 72 -58 -9 -5 19 -19
80 -41 140 -49 238 -91 238 -101 0 -15 -33 -10 -110 16 -87 30 -81 29 -73 8 7
-17 -1 -17 -117 2 -19 3 35 -15 120 -40 193 -57 209 -68 113 -85 l-48 -8 55
-1 c64 -1 59 -12 -20 -40 l-55 -19 53 5 c34 4 52 2 52 -5 0 -12 -121 -53 -212
-72 -40 -8 -55 -15 -52 -25 13 -34 -116 -84 -454 -176 -261 -70 -399 -95 -390
-69 2 8 26 22 54 31 65 23 55 23 -62 -2 -119 -25 -280 -28 -339 -7 -46 17 -58
44 -23 51 15 3 10 5 -14 6 -45 1 -53 -10 -34 -47 25 -49 43 -57 130 -59 45 -1
92 -2 105 -2 15 -1 21 -6 18 -14 -4 -11 16 -13 99 -13 74 1 104 4 104 13 0 15
47 28 155 43 177 26 351 72 477 127 107 47 153 43 91 -8 -31 -25 -33 -25 95
26 89 36 112 39 97 15 -11 -19 -124 -71 -638 -298 -31 -14 -55 -27 -53 -29 2
-2 79 28 172 67 92 38 174 70 181 70 20 0 16 -16 -9 -34 -13 -10 0 -5 27 11
28 15 93 51 145 80 156 87 162 64 10 -43 -140 -99 -182 -125 -357 -219 -95
-51 -144 -83 -124 -79 53 11 33 -7 -86 -76 -117 -68 -201 -124 -248 -166 -78
-69 244 124 540 323 168 113 216 131 139 51 -22 -22 -73 -64 -114 -94 -41 -30
-109 -78 -150 -108 -111 -80 -287 -184 -353 -208 -60 -22 -78 -41 -59 -60 7
-7 28 0 69 24 32 20 99 56 150 82 104 54 181 106 384 259 151 115 226 163 236
153 10 -9 -23 -41 -152 -149 -157 -131 -290 -230 -414 -308 -73 -45 -98 -66
-91 -73 8 -8 14 -6 21 6 5 9 38 30 74 46 64 31 165 97 363 239 99 72 118 88
87 77 -9 -4 -15 0 -15 8 0 8 60 64 133 126 72 61 150 127 172 146 22 20 43 35
48 36 40 2 -86 -128 -230 -238 -46 -35 -83 -65 -83 -67 0 -2 9 -1 20 2 26 7
25 -5 -2 -36 -13 -14 40 35 116 109 117 112 140 131 146 115 5 -15 32 12 139
141 147 176 184 205 146 111 -6 -13 -3 -16 9 -11 38 14 12 -49 -97 -234 -44
-77 -57 -106 -47 -112 10 -6 10 -15 0 -46 -21 -64 -135 -308 -226 -481 -83
-161 -95 -188 -72 -165 19 19 30 14 23 -10 -9 -36 41 61 138 267 119 253 222
496 291 685 31 85 61 159 66 164 24 24 18 -32 -20 -179 -22 -87 -40 -160 -40
-163 0 -3 7 3 15 14 13 16 16 17 25 4 5 -8 10 -12 10 -9 0 17 41 276 46 292 3
9 10 17 16 17 8 0 9 -31 5 -97 -4 -77 -3 -91 5 -63 9 31 11 33 19 15 4 -11 6
-63 4 -115 l-4 -95 10 110 c12 130 16 155 28 155 5 0 15 -16 21 -36 23 -70 18
-27 -7 60 -23 81 -24 91 -9 101 8 7 13 15 10 18 -4 3 -4 14 0 23 9 24 26 7
109 -106 78 -105 95 -126 78 -92 -7 12 -9 27 -6 32 3 5 -19 34 -49 65 -56 56
-90 107 -79 119 4 3 -6 20 -22 36 -27 28 -27 30 -8 30 11 0 39 -6 61 -14 50
-18 129 -23 142 -10 7 7 -23 17 -96 31 -118 24 -153 44 -120 69 19 14 19 14
-2 14 -47 0 -21 27 118 122 119 81 280 176 525 308 105 56 222 120 260 140
146 80 331 159 399 171 39 6 63 15 56 19 -32 19 -166 -30 -420 -155 -104 -52
-192 -90 -195 -85 -6 10 140 109 256 174 68 37 330 128 406 141 62 10 67 28 7
20 -144 -20 -345 -90 -438 -153 -46 -31 -181 -112 -278 -166 -46 -26 -63 -12
-23 20 223 175 504 337 655 377 l55 15 -47 1 c-27 1 -48 5 -48 10 0 5 16 21
35 35 19 15 35 34 35 42 0 19 -2 18 -61 -11 -28 -15 -62 -30 -76 -36 -23 -8
-25 -7 -20 11 5 20 5 20 -31 -2 -21 -12 -60 -38 -89 -57 -192 -133 -608 -409
-660 -438 -35 -19 -69 -33 -75 -30 -7 2 -47 -25 -88 -61 -77 -67 -102 -69 -55
-4 15 20 159 168 320 329 214 213 289 295 281 303 -13 13 112 136 241 237 83
64 91 73 74 73 -13 0 -318 -244 -511 -409 -172 -146 -190 -160 -190 -137 0 40
480 548 578 611 23 15 40 30 38 33 -12 12 -165 -116 -385 -322 -68 -64 -127
-116 -132 -116 -27 0 4 41 119 157 70 70 171 164 225 207 53 43 97 80 97 83 0
10 -64 -35 -147 -104 -109 -91 -123 -100 -123 -75 0 10 5 23 12 30 7 7 9 12 6
12 -9 0 -387 -483 -451 -576 -30 -44 -85 -133 -122 -199 -80 -140 -103 -175
-116 -175 -5 0 -9 9 -9 20 0 30 58 204 101 304 43 98 43 100 30 91 -20 -12
-19 16 5 125 30 131 82 288 126 373 23 47 27 62 16 68 -18 12 -21 6 -61 -111
-20 -58 -52 -147 -72 -198 -19 -52 -82 -242 -140 -424 -57 -182 -107 -333
-110 -336 -3 -3 -10 -1 -16 5 -14 14 4 239 31 393 43 234 147 588 254 865 25
64 26 68 7 51 -21 -19 -21 -19 -21 1 0 11 7 40 15 63 8 24 13 45 11 47 -2 2
-11 -18 -21 -44z m545 -681 c0 -5 -96 -112 -214 -238 -117 -126 -269 -294
-338 -374 -69 -80 -135 -154 -147 -164 -21 -19 -21 -19 -21 1 0 25 121 203
213 312 204 241 507 518 507 463z"/>
<path d="M3682 8405 c-23 -47 -40 -85 -37 -85 7 0 87 161 83 166 -2 2 -23 -35
-46 -81z"/>
<path d="M6292 8450 c0 -19 2 -27 5 -17 2 9 2 25 0 35 -3 9 -5 1 -5 -18z"/>
<path d="M9440 8446 c0 -2 8 -10 18 -17 15 -13 16 -12 3 4 -13 16 -21 21 -21
13z"/>
<path d="M4406 8319 c-144 -111 -466 -378 -466 -386 0 -5 13 5 240 193 80 66
193 158 253 203 94 73 115 92 105 91 -2 0 -61 -46 -132 -101z"/>
<path d="M5290 8394 c0 -3 16 -43 37 -87 39 -87 49 -152 23 -152 -8 0 -37 37
-65 83 -28 45 -57 88 -65 95 -7 6 -5 -1 5 -18 10 -16 44 -70 75 -120 75 -118
93 -154 86 -171 -10 -27 -45 -14 -86 34 l-41 47 25 -45 c14 -25 26 -54 26 -65
0 -14 7 -21 21 -22 12 -1 29 -9 38 -17 16 -15 17 -14 13 14 -5 36 10 39 32 8
21 -30 20 -46 -4 -50 -19 -3 -18 -6 14 -54 19 -29 65 -109 101 -178 37 -69 69
-126 71 -126 2 0 -5 18 -16 40 -22 44 -25 67 -9 72 6 2 -8 32 -34 68 -55 80
-77 123 -77 150 0 18 3 19 21 10 19 -11 19 -8 -6 34 -44 75 -17 101 43 44 27
-26 32 -28 23 -10 -7 12 -10 26 -7 31 3 4 -16 30 -43 58 l-48 50 10 -34 c8
-24 7 -37 -1 -45 -18 -18 -39 7 -51 60 -8 38 -7 49 4 58 12 9 10 20 -10 70
-13 32 -27 78 -31 102 -5 37 -8 40 -19 26 -14 -20 -35 -11 -35 16 0 10 -4 22
-10 25 -5 3 -10 3 -10 -1z"/>
<path d="M7477 8368 c-31 -31 -31 -32 -2 -8 16 14 34 28 40 32 5 5 6 8 2 8 -4
0 -22 -15 -40 -32z"/>
<path d="M6282 8365 c0 -16 2 -22 5 -12 2 9 2 23 0 30 -3 6 -5 -1 -5 -18z"/>
<path d="M6916 8335 c-9 -26 -7 -32 5 -12 6 10 9 21 6 23 -2 3 -7 -2 -11 -11z"/>
<path d="M6272 8280 c0 -19 2 -27 5 -17 2 9 2 25 0 35 -3 9 -5 1 -5 -18z"/>
<path d="M6896 8285 c-9 -26 -7 -32 5 -12 6 10 9 21 6 23 -2 3 -7 -2 -11 -11z"/>
<path d="M7394 8278 l-19 -23 23 19 c21 18 27 26 19 26 -2 0 -12 -10 -23 -22z"/>
<path d="M1390 8240 c8 -5 22 -10 30 -10 13 0 13 1 0 10 -8 5 -22 10 -30 10
-13 0 -13 -1 0 -10z"/>
<path d="M6263 8165 c0 -38 2 -53 4 -32 2 20 2 52 0 70 -2 17 -4 1 -4 -38z"/>
<path d="M9570 8225 c0 -2 18 -14 40 -25 22 -11 40 -18 40 -15 0 2 -18 14 -40
25 -22 11 -40 18 -40 15z"/>
<path d="M4604 8184 c-18 -14 -18 -15 4 -4 12 6 22 13 22 15 0 8 -5 6 -26 -11z"/>
<path d="M11610 8170 c-103 -18 -247 -32 -505 -50 l-130 -9 165 5 c275 8 559
39 584 64 12 12 17 13 -114 -10z"/>
<path d="M5720 8135 c0 -5 5 -17 10 -25 5 -8 10 -10 10 -5 0 6 -5 17 -10 25
-5 8 -10 11 -10 5z"/>
<path d="M10878 8103 c17 -2 47 -2 65 0 17 2 3 4 -33 4 -36 0 -50 -2 -32 -4z"/>
<path d="M10758 8093 c18 -2 45 -2 60 0 15 2 0 4 -33 4 -33 0 -45 -2 -27 -4z"/>
<path d="M10658 8083 c12 -2 32 -2 45 0 12 2 2 4 -23 4 -25 0 -35 -2 -22 -4z"/>
<path d="M10515 8070 c-33 -6 -35 -7 -10 -8 17 0 53 3 80 8 47 7 48 7 10 7
-22 0 -58 -3 -80 -7z"/>
<path d="M2080 8050 c8 -5 20 -10 25 -10 6 0 3 5 -5 10 -8 5 -19 10 -25 10 -5
0 -3 -5 5 -10z"/>
<path d="M6482 8035 c0 -16 2 -22 5 -12 2 9 2 23 0 30 -3 6 -5 -1 -5 -18z"/>
<path d="M10423 8053 c9 -2 25 -2 35 0 9 3 1 5 -18 5 -19 0 -27 -2 -17 -5z"/>
<path d="M10363 8043 c9 -2 23 -2 30 0 6 3 -1 5 -18 5 -16 0 -22 -2 -12 -5z"/>
<path d="M6248 7964 c-4 -57 -10 -80 -22 -90 -16 -11 -16 -15 -2 -43 10 -18
16 -58 17 -103 1 -66 2 -70 11 -38 9 29 11 339 3 348 -1 1 -5 -32 -7 -74z"/>
<path d="M2487 8016 c-3 -8 2 -21 11 -28 22 -19 192 -129 192 -124 0 2 -35 32
-77 67 -129 106 -120 101 -126 85z"/>
<path d="M2240 7975 c25 -13 50 -24 55 -24 6 0 -10 11 -35 24 -25 13 -49 24
-55 24 -5 0 10 -11 35 -24z"/>
<path d="M5781 7963 c-1 -7 -8 -13 -16 -13 -9 0 0 -15 24 -39 21 -21 42 -49
46 -61 6 -20 7 -20 20 -3 11 15 9 22 -13 48 -15 17 -35 42 -44 55 -9 14 -17
19 -17 13z"/>
<path d="M4760 7937 l-45 -11 35 -5 c53 -9 44 -32 -20 -53 -45 -14 -50 -17
-25 -17 57 -2 94 -48 63 -79 -9 -9 -4 -12 24 -12 20 0 40 5 44 11 4 7 25 9 55
7 34 -4 50 -1 53 8 3 7 27 20 53 28 l48 15 -76 0 c-62 1 -81 5 -100 21 -23 19
-23 21 -5 34 17 14 15 15 -20 18 -33 3 -39 6 -38 26 0 12 0 22 0 21 -1 -1 -21
-6 -46 -12z"/>
<path d="M3904 7908 l-19 -23 23 19 c21 18 27 26 19 26 -2 0 -12 -10 -23 -22z"/>
<path d="M5579 7902 c17 -33 186 -255 207 -273 16 -13 -185 263 -208 286 -6 6
-5 0 1 -13z"/>
<path d="M1478 7879 c6 -7 12 -16 12 -21 0 -4 -46 -5 -102 -3 l-103 5 55 -15
c30 -9 90 -27 132 -40 86 -28 110 -32 61 -10 -101 44 37 44 227 1 58 -13 107
-22 109 -20 2 2 1 9 -2 16 -3 8 -36 19 -79 26 -83 14 -272 56 -303 68 -16 6
-18 5 -7 -7z"/>
<path d="M7440 7780 c-58 -43 -134 -106 -170 -140 l-65 -61 90 73 c50 40 127
102 173 137 72 55 90 71 80 71 -2 0 -50 -36 -108 -80z"/>
<path d="M5128 7843 c-10 -2 -18 -13 -18 -24 0 -23 15 -17 30 12 6 10 9 18 8
18 -2 -1 -11 -3 -20 -6z"/>
<path d="M9568 7843 c7 -3 16 -2 19 1 4 3 -2 6 -13 5 -11 0 -14 -3 -6 -6z"/>
<path d="M9528 7833 c7 -3 16 -2 19 1 4 3 -2 6 -13 5 -11 0 -14 -3 -6 -6z"/>
<path d="M4518 7813 c7 -3 16 -2 19 1 4 3 -2 6 -13 5 -11 0 -14 -3 -6 -6z"/>
<path d="M9435 7810 c-13 -5 -14 -9 -5 -9 8 0 24 4 35 9 13 5 14 9 5 9 -8 0
-24 -4 -35 -9z"/>
<path d="M11008 7813 c6 -2 18 -2 25 0 6 3 1 5 -13 5 -14 0 -19 -2 -12 -5z"/>
<path d="M4478 7803 c7 -3 16 -2 19 1 4 3 -2 6 -13 5 -11 0 -14 -3 -6 -6z"/>
<path d="M11058 7803 c7 -3 16 -2 19 1 4 3 -2 6 -13 5 -11 0 -14 -3 -6 -6z"/>
<path d="M11108 7793 c7 -3 16 -2 19 1 4 3 -2 6 -13 5 -11 0 -14 -3 -6 -6z"/>
<path d="M9325 7775 c-39 -17 -21 -18 25 0 19 7 28 14 20 14 -8 0 -28 -6 -45
-14z"/>
<path d="M11158 7783 c6 -2 18 -2 25 0 6 3 1 5 -13 5 -14 0 -19 -2 -12 -5z"/>
<path d="M11355 7744 c88 -18 169 -33 180 -33 11 1 -52 16 -140 35 -88 18
-169 33 -180 33 -11 -1 52 -16 140 -35z"/>
<path d="M5950 7750 c6 -11 13 -20 16 -20 2 0 0 9 -6 20 -6 11 -13 20 -16 20
-2 0 0 -9 6 -20z"/>
<path d="M9182 7757 c-23 -28 -123 -72 -230 -102 -56 -16 -100 -30 -98 -32 2
-3 46 7 97 21 103 29 149 33 149 14 1 -8 6 -6 14 5 7 9 38 31 67 47 30 16 46
30 37 30 -9 0 -18 7 -20 17 -3 15 -4 15 -16 0z"/>
<path d="M2580 7730 c0 -13 43 -30 73 -30 18 1 16 4 -13 20 -39 22 -60 25 -60
10z"/>
<path d="M4987 7713 c4 -10 12 -22 20 -26 7 -4 13 -15 13 -23 0 -8 4 -12 10
-9 5 3 19 1 31 -5 18 -10 19 -10 10 8 -5 10 -7 29 -4 42 6 21 4 22 -21 16 -14
-3 -35 -2 -46 4 -17 9 -19 8 -13 -7z"/>
<path d="M4860 7709 c0 -5 -10 -14 -22 -19 -23 -9 -23 -9 -2 -9 12 -1 40 -7
62 -15 40 -14 41 -14 33 6 -8 21 -71 54 -71 37z"/>
<path d="M11568 7703 c7 -3 16 -2 19 1 4 3 -2 6 -13 5 -11 0 -14 -3 -6 -6z"/>
<path d="M10260 7696 c0 -2 8 -10 18 -17 15 -13 16 -12 3 4 -13 16 -21 21 -21
13z"/>
<path d="M11618 7693 c7 -3 16 -2 19 1 4 3 -2 6 -13 5 -11 0 -14 -3 -6 -6z"/>
<path d="M4968 7603 c-2 -19 -10 -29 -28 -34 -21 -5 -22 -7 -7 -14 9 -4 17
-17 17 -29 0 -12 8 -26 18 -32 62 -39 354 -195 358 -191 3 2 -37 28 -88 56
-98 54 -246 161 -261 187 -15 27 14 47 49 34 l29 -11 -22 21 c-13 11 -23 25
-23 30 0 6 -9 10 -19 10 -14 0 -21 -8 -23 -27z"/>
<path d="M8818 7613 c7 -3 16 -2 19 1 4 3 -2 6 -13 5 -11 0 -14 -3 -6 -6z"/>
<path d="M10810 7571 c24 -20 40 -26 40 -16 0 2 -15 12 -32 20 l-33 16 25 -20z"/>
<path d="M8628 7563 c7 -3 16 -2 19 1 4 3 -2 6 -13 5 -11 0 -14 -3 -6 -6z"/>
<path d="M5614 7535 c49 -80 157 -201 231 -258 22 -17 -3 14 -56 69 -52 54
-113 122 -134 149 -51 65 -63 77 -41 40z"/>
<path d="M8555 7550 c-27 -7 -28 -8 -5 -8 14 0 34 3 45 8 25 11 2 11 -40 0z"/>
<path d="M10960 7486 c0 -3 9 -10 20 -16 11 -6 20 -8 20 -6 0 3 -9 10 -20 16
-11 6 -20 8 -20 6z"/>
<path d="M1438 7333 c12 -2 30 -2 40 0 9 3 -1 5 -23 4 -22 0 -30 -2 -17 -4z"/>
<path d="M5460 7325 c0 -7 81 -47 86 -43 2 3 -17 14 -41 26 -25 12 -45 20 -45
17z"/>
<path d="M4963 7287 c9 -8 17 -21 17 -30 0 -11 15 -20 43 -27 43 -11 136 -41
172 -56 11 -4 4 6 -16 24 -24 21 -47 32 -67 32 -17 0 -61 16 -99 35 -37 20
-60 29 -50 22z"/>
<path d="M10051 7274 c0 -11 3 -14 6 -6 3 7 2 16 -1 19 -3 4 -6 -2 -5 -13z"/>
<path d="M7930 7250 c-8 -5 -10 -10 -5 -10 6 0 17 5 25 10 8 5 11 10 5 10 -5
0 -17 -5 -25 -10z"/>
<path d="M1333 7231 c-28 -4 -55 -10 -59 -14 -9 -9 -1 -8 126 8 87 10 95 13
45 12 -33 0 -83 -3 -112 -6z"/>
<path d="M5465 7232 c27 -26 337 -174 343 -165 4 6 15 12 26 14 10 2 -37 24
-105 48 -68 25 -158 60 -199 78 -41 19 -70 30 -65 25z"/>
<path d="M7835 7215 c-25 -12 -26 -14 -5 -9 28 7 60 23 45 23 -5 0 -23 -6 -40
-14z"/>
<path d="M1598 7173 c7 -3 16 -2 19 1 4 3 -2 6 -13 5 -11 0 -14 -3 -6 -6z"/>
<path d="M10387 7159 c-9 -34 -9 -35 13 -35 23 0 24 3 6 35 l-13 23 -6 -23z"/>
<path d="M1558 7163 c7 -3 16 -2 19 1 4 3 -2 6 -13 5 -11 0 -14 -3 -6 -6z"/>
<path d="M1508 7153 c7 -3 16 -2 19 1 4 3 -2 6 -13 5 -11 0 -14 -3 -6 -6z"/>
<path d="M10569 7115 c-3 -38 -8 -50 -20 -49 -15 1 -15 -3 1 -50 28 -80 45
-203 31 -220 -10 -11 -8 -23 8 -54 23 -45 62 -195 85 -327 15 -91 53 -432 63
-580 9 -130 -15 -79 -48 102 -34 185 -34 184 -54 177 -8 -4 -15 -1 -15 7 0 7
-2 10 -5 7 -3 -3 2 -38 12 -77 14 -59 15 -74 4 -80 -15 -10 -1 -57 80 -275 48
-127 59 -173 39 -161 -6 4 -22 29 -35 56 -14 27 -28 49 -31 49 -3 0 -3 -4 1
-9 3 -5 1 -12 -4 -16 -15 -9 -43 41 -190 329 -72 143 -134 262 -137 265 -3 3
-3 -6 1 -22 5 -17 3 -27 -4 -27 -6 0 -11 -4 -11 -8 0 -5 61 -111 135 -237 129
-218 147 -255 125 -255 -8 0 -156 218 -269 398 -36 57 -51 69 -26 23 9 -18 11
-32 5 -36 -14 -9 -140 170 -140 200 0 15 31 1 50 -22 11 -16 -1 15 -29 67 -27
52 -57 118 -66 147 -12 36 -21 50 -31 46 -10 -3 -22 12 -39 50 -30 64 -45 157
-26 157 16 0 62 -101 68 -151 4 -29 10 -39 24 -39 11 0 30 -21 51 -55 17 -30
34 -53 35 -51 2 2 -23 59 -57 126 -33 68 -60 129 -60 136 0 8 -6 14 -14 14
-16 0 -66 107 -66 143 0 36 -10 57 -27 57 -11 0 -13 -6 -9 -22 26 -92 33 -125
29 -135 -7 -18 -23 -16 -39 5 -8 9 2 -21 21 -68 50 -124 47 -222 -7 -173 -14
12 -9 -1 15 -42 49 -84 54 -103 27 -113 -20 -7 -5 -29 180 -257 327 -402 380
-465 463 -558 76 -86 92 -116 45 -85 -13 9 -115 105 -228 214 -113 109 -199
192 -192 184 6 -8 12 -20 12 -27 0 -24 -49 10 -175 123 -66 59 -187 159 -270
222 -196 151 -335 270 -335 288 0 8 -6 14 -14 14 -8 0 -28 12 -45 26 -22 18
-31 22 -31 11 0 -16 64 -84 117 -124 17 -13 34 -34 37 -46 3 -12 64 -69 135
-125 136 -109 188 -158 179 -167 -5 -6 -33 14 -168 118 -36 28 -56 41 -45 29
38 -40 342 -274 532 -410 106 -75 193 -143 193 -149 0 -16 -6 -16 -31 -3 -40
22 -16 0 56 -49 41 -29 75 -59 75 -68 0 -12 -7 -11 -37 8 -58 34 -80 45 -198
99 -60 27 -100 42 -87 33 53 -37 12 -71 -71 -59 -40 6 -42 5 -43 -19 -1 -14
-1 -25 1 -25 1 0 15 5 31 10 23 8 42 6 88 -10 73 -25 75 -25 42 1 -33 26 -25
39 22 39 50 -1 342 -138 342 -161 0 -17 -26 -9 -315 97 -18 7 -18 5 2 -12 22
-18 22 -21 8 -59 -19 -54 -19 -79 1 -71 9 3 17 6 18 6 1 0 1 13 -2 30 -3 21 1
32 11 36 16 6 212 -45 341 -89 81 -27 96 -46 39 -48 -25 -1 -30 -3 -13 -6 61
-9 72 -14 66 -29 -5 -12 3 -14 39 -13 25 2 47 0 50 -3 8 -7 -70 -417 -105
-553 -15 -60 -42 -149 -60 -197 -38 -105 -169 -374 -270 -553 -169 -303 -482
-780 -704 -1074 -241 -320 -317 -423 -461 -621 -283 -390 -571 -724 -635 -737
-21 -4 -32 -16 -48 -55 -17 -39 -25 -49 -41 -46 -15 2 -26 -7 -40 -32 -14 -28
-38 -45 -110 -81 -50 -25 -103 -57 -117 -70 -41 -38 -146 -175 -209 -274 -32
-49 -89 -133 -127 -186 -37 -53 -68 -101 -68 -108 0 -6 15 -11 34 -11 24 0 54
15 112 57 43 31 113 78 154 105 56 37 101 80 186 180 61 71 129 159 149 194
21 35 42 64 47 64 4 0 13 12 18 26 6 14 23 31 40 37 23 9 30 18 30 38 0 14 9
34 20 44 11 10 49 61 84 114 36 53 176 240 311 416 243 316 301 395 465 630
46 66 151 210 233 320 255 342 514 743 729 1130 228 411 260 497 353 955 51
251 53 260 65 260 4 0 21 -19 36 -43 21 -35 33 -44 55 -44 16 0 29 4 29 9 0
28 29 7 229 -165 166 -143 184 -155 203 -148 14 5 -23 37 -150 133 -176 133
-227 178 -200 178 8 0 33 -13 54 -28 160 -115 176 -125 165 -104 -10 18 -9 22
4 22 9 0 29 -7 45 -15 62 -32 27 -5 -52 41 -155 88 -192 114 -179 127 8 8 67
-17 234 -100 190 -96 551 -289 750 -402 31 -18 57 -31 57 -28 0 13 -270 163
-653 363 -257 134 -297 158 -284 170 7 7 24 1 142 -50 33 -14 156 -62 274
-107 118 -45 338 -133 490 -195 151 -63 276 -112 278 -110 7 6 -622 267 -850
353 -130 48 -212 86 -222 103 -13 21 66 9 182 -26 191 -58 176 -55 163 -39
-17 20 10 20 76 0 56 -17 77 -19 52 -4 -9 5 -15 15 -12 22 5 15 17 12 -355 92
-290 62 -319 71 -304 86 7 7 66 5 184 -5 224 -20 450 -29 365 -16 -32 5 -61
12 -63 14 -21 21 199 15 696 -19 213 -14 279 -14 194 -1 -56 9 -698 46 -800
46 -110 0 -163 9 -163 26 0 10 -15 12 -62 9 -173 -12 -225 -13 -238 -5 -13 9
-13 11 -1 19 34 22 892 141 1199 167 82 7 107 18 81 35 -16 11 -70 7 -378 -27
-259 -28 -428 -52 -661 -93 -213 -38 -212 -38 -217 -25 -2 7 54 33 133 63 286
109 503 157 857 188 108 9 197 20 197 24 0 8 -71 4 -257 -17 -276 -30 -315 -9
-58 30 343 53 345 53 289 55 -27 0 -132 -12 -232 -29 -211 -35 -237 -36 -228
-15 7 19 12 20 -106 -15 -115 -34 -118 -35 -118 -17 0 13 178 86 455 188 77
28 151 58 165 66 l25 14 -25 -5 c-37 -7 -356 -125 -559 -207 -272 -110 -534
-209 -553 -209 -20 0 -24 15 -7 26 8 4 7 9 -2 14 -19 12 -4 27 130 129 260
198 503 340 828 483 64 28 82 40 77 52 -9 22 -17 21 -114 -20 -236 -99 -318
-150 -702 -436 -125 -93 -234 -167 -240 -165 -8 4 156 174 396 414 225 224
385 385 355 357 -30 -27 -216 -208 -414 -400 -411 -400 -440 -427 -456 -422
-19 6 322 428 536 663 152 167 337 385 327 385 -5 0 -56 -55 -114 -122 -58
-68 -145 -166 -193 -218 -87 -94 -274 -314 -389 -460 -96 -120 -295 -358 -306
-365 -20 -12 -9 31 19 81 17 28 71 107 122 175 50 68 81 114 67 102 -28 -26
-38 -29 -38 -10 0 14 146 276 315 562 142 242 164 280 138 245 -35 -48 -72
-85 -73 -71 0 7 30 69 66 138 36 68 64 126 62 129 -8 7 -162 -214 -223 -321
-32 -55 -112 -206 -178 -335 -191 -374 -207 -403 -222 -390 -14 11 -11 17 -65
-127 -45 -120 -62 -107 -35 27 2 14 -1 8 -8 -12 -15 -44 -37 -71 -37 -45 0 9
-7 17 -15 17 -35 0 -32 124 10 470 26 218 29 266 14 212 -15 -52 -29 -27 -29
53 0 130 39 174 41 47 1 -37 4 -56 6 -42 6 30 22 52 34 44 5 -3 10 -31 10 -62
1 -55 2 -54 14 33 7 50 13 101 13 115 0 22 -1 21 -10 -7 -6 -18 -17 -33 -25
-33 -12 0 -14 13 -9 73 5 68 5 70 -7 32 -21 -67 -41 -52 -48 35 -3 41 -6 60
-7 42 -2 -25 -8 -35 -23 -39 -14 -4 -18 -10 -12 -22 11 -22 15 -360 6 -450 -8
-71 -26 -103 -36 -64 -9 34 -7 -41 3 -151 7 -67 7 -113 1 -119 -5 -5 -11 -4
-16 2 -3 7 -20 109 -36 229 -16 119 -41 271 -55 337 -40 192 -40 189 -19 182
12 -5 15 -3 12 5 -57 130 -84 218 -94 311 -6 57 1 69 26 45 6 -7 1 13 -14 45
-15 36 -28 89 -33 140 -8 77 -9 79 -13 32z m-466 -698 c45 -93 56 -137 34
-137 -38 0 -115 147 -103 195 10 41 28 26 69 -58z m112 -277 c50 -69 130 -178
179 -245 48 -66 95 -133 103 -149 14 -28 14 -28 -6 -14 -40 28 -394 474 -430
542 -8 14 -10 33 -7 43 7 16 11 14 39 -18 18 -19 73 -91 122 -159z m1680 -479
c-6 -6 -80 -28 -165 -50 -85 -22 -170 -45 -187 -50 -19 -5 -35 -6 -38 -1 -11
18 113 68 236 95 75 16 168 20 154 6z"/>
<path d="M1445 7140 c-13 -5 -14 -9 -5 -9 8 0 24 4 35 9 13 5 14 9 5 9 -8 0
-24 -4 -35 -9z"/>
<path d="M5304 7116 c13 -12 39 -26 57 -29 19 -3 50 -8 69 -12 19 -3 -5 10
-55 29 -49 20 -91 36 -92 36 -1 0 8 -11 21 -24z"/>
<path d="M1398 7123 c7 -3 16 -2 19 1 4 3 -2 6 -13 5 -11 0 -14 -3 -6 -6z"/>
<path d="M1718 7113 c7 -3 16 -2 19 1 4 3 -2 6 -13 5 -11 0 -14 -3 -6 -6z"/>
<path d="M10061 7038 c-1 -81 1 -88 19 -88 13 0 23 -10 29 -32 10 -30 10 -29
4 12 -3 25 -16 79 -29 120 l-23 75 0 -87z"/>
<path d="M10731 7103 c-1 -28 -8 -29 -34 -5 -16 14 -15 8 7 -29 15 -26 29 -70
33 -98 6 -52 16 -64 27 -34 6 14 11 12 38 -13 l31 -29 -20 30 c-34 51 -56 98
-69 150 -7 28 -13 40 -13 28z"/>
<path d="M1668 7103 c7 -3 16 -2 19 1 4 3 -2 6 -13 5 -11 0 -14 -3 -6 -6z"/>
<path d="M1618 7093 c6 -2 18 -2 25 0 6 3 1 5 -13 5 -14 0 -19 -2 -12 -5z"/>
<path d="M10281 7090 c-1 -17 47 -170 48 -155 0 6 -10 46 -24 90 -13 44 -24
73 -24 65z"/>
<path d="M1568 7083 c6 -2 18 -2 25 0 6 3 1 5 -13 5 -14 0 -19 -2 -12 -5z"/>
<path d="M1528 7073 c7 -3 16 -2 19 1 4 3 -2 6 -13 5 -11 0 -14 -3 -6 -6z"/>
<path d="M5018 7073 c7 -3 16 -2 19 1 4 3 -2 6 -13 5 -11 0 -14 -3 -6 -6z"/>
<path d="M5585 7060 c-3 -5 -16 -10 -28 -11 -12 0 55 -21 148 -45 94 -24 175
-42 180 -40 6 2 -6 6 -25 11 -19 4 -86 27 -148 51 -129 50 -119 47 -127 34z"/>
<path d="M9845 6983 c-41 -188 -47 -213 -56 -219 -6 -3 -19 2 -30 12 -19 17
-18 15 2 -30 19 -44 20 -50 5 -64 -14 -15 -18 -13 -47 13 l-31 30 31 -49 c18
-30 31 -63 31 -83 0 -25 4 -31 15 -27 11 5 15 -1 15 -24 0 -26 3 -29 22 -24
18 4 33 -7 76 -54 53 -57 53 -57 21 -11 -19 26 -49 68 -66 93 -18 25 -33 55
-33 65 0 35 29 34 67 -2 l36 -34 -38 57 c-44 68 -53 122 -35 208 14 67 30 76
55 33 9 -16 13 -19 9 -8 -23 67 -34 125 -29 158 9 64 -2 40 -20 -40z"/>
<path d="M6995 6985 c-16 -8 -79 -31 -139 -51 -60 -21 -104 -40 -98 -42 17 -5
118 16 209 43 68 21 81 29 80 45 -1 23 -10 24 -52 5z"/>
<path d="M4555 6981 c-28 -6 -27 -8 35 -30 91 -33 100 -35 58 -11 -21 11 -38
27 -38 35 0 16 -7 17 -55 6z"/>
<path d="M10400 6983 c0 -43 148 -668 157 -660 2 3 -16 85 -41 183 -24 99 -59
247 -76 329 -30 138 -40 176 -40 148z"/>
<path d="M10493 6948 c3 -7 13 -43 23 -80 12 -43 24 -68 32 -68 9 0 12 6 7 18
-4 9 -14 45 -22 80 -10 40 -21 62 -30 62 -8 0 -12 -6 -10 -12z"/>
<path d="M10170 6925 c0 -5 5 -17 10 -25 5 -8 10 -10 10 -5 0 6 -5 17 -10 25
-5 8 -10 11 -10 5z"/>
<path d="M10891 6903 c0 -18 -8 -36 -17 -41 -16 -9 -16 -11 -1 -33 12 -16 15
-35 12 -63 -4 -33 -4 -37 4 -18 6 12 15 22 21 22 7 0 9 8 5 20 -3 10 -10 48
-14 82 -5 35 -9 49 -10 31z"/>
<path d="M10121 6864 c0 -11 3 -14 6 -6 3 7 2 16 -1 19 -3 4 -6 -2 -5 -13z"/>
<path d="M10190 6877 c0 -13 53 -138 56 -134 2 2 -8 33 -22 68 -25 62 -34 79
-34 66z"/>
<path d="M10351 6844 c0 -11 3 -14 6 -6 3 7 2 16 -1 19 -3 4 -6 -2 -5 -13z"/>
<path d="M10977 6813 c-4 -23 -13 -46 -21 -50 -11 -6 -13 -20 -6 -63 4 -30 8
-49 9 -42 0 6 8 12 16 12 11 0 15 -11 15 -36 0 -31 2 -35 15 -24 8 6 19 9 25
5 15 -9 12 7 -6 30 -10 14 -13 33 -9 65 4 39 4 42 -6 23 -12 -23 -24 -29 -32
-15 -3 4 -1 31 5 60 5 30 7 59 5 65 -2 7 -7 -7 -10 -30z"/>
<path d="M9911 6815 c0 -5 8 -26 19 -45 11 -19 19 -30 19 -25 0 6 -8 26 -19
45 -11 19 -19 31 -19 25z"/>
<path d="M10744 6783 c-10 -15 -13 -16 -28 -4 -21 18 -21 2 1 -29 10 -14 27
-58 40 -100 12 -41 22 -65 22 -52 1 13 7 22 16 22 13 0 12 6 -5 40 -11 21 -23
62 -28 90 -6 42 -9 47 -18 33z"/>
<path d="M5628 6743 c6 -2 18 -2 25 0 6 3 1 5 -13 5 -14 0 -19 -2 -12 -5z"/>
<path d="M5568 6733 c6 -2 18 -2 25 0 6 3 1 5 -13 5 -14 0 -19 -2 -12 -5z"/>
<path d="M4785 6702 c32 -18 49 -34 49 -45 -1 -13 6 -17 36 -17 21 0 50 -4 63
-9 21 -8 26 -6 30 10 4 16 0 19 -31 19 -20 0 -68 15 -109 35 -88 42 -108 45
-38 7z"/>
<path d="M5508 6723 c7 -3 16 -2 19 1 4 3 -2 6 -13 5 -11 0 -14 -3 -6 -6z"/>
<path d="M10250 6725 c0 -5 5 -17 10 -25 5 -8 10 -10 10 -5 0 6 -5 17 -10 25
-5 8 -10 11 -10 5z"/>
<path d="M2320 6669 c-36 -28 -72 -57 -80 -66 -8 -9 22 12 68 46 45 34 82 64
82 66 0 8 -1 7 -70 -46z"/>
<path d="M10161 6694 c0 -11 3 -14 6 -6 3 7 2 16 -1 19 -3 4 -6 -2 -5 -13z"/>
<path d="M5816 6691 c-15 -6 -17 -9 -6 -16 9 -6 4 -13 -21 -27 -35 -19 -25
-18 52 6 24 8 38 14 32 15 -7 1 -13 8 -13 16 0 16 -14 18 -44 6z"/>
<path d="M9577 6670 c-10 -38 -8 -70 5 -70 7 0 25 -12 42 -27 l29 -28 -28 38
c-16 21 -31 55 -35 75 -5 34 -6 35 -13 12z"/>
<path d="M10270 6675 c0 -5 5 -17 10 -25 5 -8 10 -10 10 -5 0 6 -5 17 -10 25
-5 8 -10 11 -10 5z"/>
<path d="M11420 6660 c-6 -11 -8 -20 -6 -20 3 0 10 9 16 20 6 11 8 20 6 20 -3
0 -10 -9 -16 -20z"/>
<path d="M10171 6660 c0 -8 4 -24 9 -35 5 -13 9 -14 9 -5 0 8 -4 24 -9 35 -5
13 -9 14 -9 5z"/>
<path d="M11814 6588 c-32 -40 -135 -165 -229 -278 -185 -222 -359 -440 -300
-375 20 22 91 108 158 190 66 83 178 218 248 300 126 148 195 235 186 235 -3
0 -31 -33 -63 -72z"/>
<path d="M4650 6646 c0 -13 62 -37 73 -28 7 6 23 12 37 15 16 3 8 5 -20 6 -25
1 -55 4 -67 7 -13 4 -23 4 -23 0z"/>
<path d="M11161 6614 c0 -11 3 -14 6 -6 3 7 2 16 -1 19 -3 4 -6 -2 -5 -13z"/>
<path d="M5585 6580 c-27 -10 -43 -18 -35 -18 8 0 38 8 65 18 28 10 43 18 35
18 -8 0 -37 -8 -65 -18z"/>
<path d="M11151 6574 c0 -11 3 -14 6 -6 3 7 2 16 -1 19 -3 4 -6 -2 -5 -13z"/>
<path d="M11355 6540 c-14 -27 -23 -50 -20 -50 2 0 16 23 30 50 14 28 23 50
20 50 -2 0 -16 -22 -30 -50z"/>
<path d="M10205 6550 c15 -51 47 -131 51 -128 4 4 -45 140 -53 148 -3 3 -2 -6
2 -20z"/>
<path d="M5508 6553 c7 -3 16 -2 19 1 4 3 -2 6 -13 5 -11 0 -14 -3 -6 -6z"/>
<path d="M11128 6529 c-9 -10 -14 -26 -12 -36 3 -10 -29 -155 -70 -321 -42
-166 -76 -307 -75 -314 0 -7 40 142 89 332 49 190 88 347 87 350 -1 3 -10 -2
-19 -11z"/>
<path d="M4830 6516 c0 -9 -6 -17 -12 -17 -7 -1 14 -5 46 -10 38 -6 62 -5 66
1 3 5 24 14 45 19 39 9 39 9 -21 10 -34 1 -76 4 -93 7 -24 5 -31 3 -31 -10z"/>
<path d="M5033 6523 c9 -2 23 -2 30 0 6 3 -1 5 -18 5 -16 0 -22 -2 -12 -5z"/>
<path d="M9695 6484 c15 -21 25 -52 26 -73 0 -20 3 -30 6 -23 8 20 20 14 27
-14 5 -17 12 -24 22 -20 8 3 32 -10 57 -32 42 -37 38 -29 -21 41 -18 21 -32
47 -32 57 0 11 -9 28 -20 37 -11 10 -20 23 -20 31 0 7 -5 10 -10 7 -6 -4 -22
0 -35 9 l-24 16 24 -36z"/>
<path d="M10582 6490 c0 -14 2 -19 5 -12 2 6 2 18 0 25 -3 6 -5 1 -5 -13z"/>
<path d="M5730 6480 c-19 -11 -30 -19 -25 -19 6 0 26 8 45 19 19 11 31 19 25
19 -5 0 -26 -8 -45 -19z"/>
<path d="M2249 6463 c-13 -16 -12 -17 4 -4 16 13 21 21 13 21 -2 0 -10 -8 -17
-17z"/>
<path d="M10773 6450 c-9 -14 -10 -27 -3 -45 6 -15 11 -61 12 -103 2 -73 2
-74 5 -17 2 32 7 64 11 70 5 5 3 34 -3 63 -9 47 -11 50 -22 32z"/>
<path d="M10360 6455 c0 -5 5 -17 10 -25 5 -8 10 -10 10 -5 0 6 -5 17 -10 25
-5 8 -10 11 -10 5z"/>
<path d="M10592 6430 c0 -14 2 -19 5 -12 2 6 2 18 0 25 -3 6 -5 1 -5 -13z"/>
<path d="M2199 6423 c-13 -16 -12 -17 4 -4 16 13 21 21 13 21 -2 0 -10 -8 -17
-17z"/>
<path d="M3731 6393 c82 -137 170 -270 245 -371 103 -138 463 -592 471 -592 5
0 0 6 -207 270 -219 277 -350 456 -442 603 -45 70 -83 127 -85 127 -3 0 6 -17
18 -37z"/>
<path d="M6512 6380 c0 -19 2 -27 5 -17 2 9 2 25 0 35 -3 9 -5 1 -5 -18z"/>
<path d="M10261 6405 c0 -5 6 -21 14 -35 8 -14 14 -20 14 -15 0 6 -6 21 -14
35 -8 14 -14 21 -14 15z"/>
<path d="M10380 6405 c0 -5 5 -17 10 -25 5 -8 10 -10 10 -5 0 6 -5 17 -10 25
-5 8 -10 11 -10 5z"/>
<path d="M2149 6383 c-13 -16 -12 -17 4 -4 9 7 17 15 17 17 0 8 -8 3 -21 -13z"/>
<path d="M5475 6390 c-22 -5 -83 -12 -135 -16 -52 -4 -104 -11 -115 -15 -13
-6 -7 -7 18 -3 24 4 48 2 63 -7 21 -11 36 -10 97 5 112 28 165 54 72 36z"/>
<path d="M6880 6345 c17 -25 33 -45 36 -45 3 0 -9 20 -26 45 -17 25 -33 45
-36 45 -3 0 9 -20 26 -45z"/>
<path d="M10601 6374 c0 -11 3 -14 6 -6 3 7 2 16 -1 19 -3 4 -6 -2 -5 -13z"/>
<path d="M6502 6315 c0 -16 2 -22 5 -12 2 9 2 23 0 30 -3 6 -5 -1 -5 -18z"/>
<path d="M10612 6320 c0 -14 2 -19 5 -12 2 6 2 18 0 25 -3 6 -5 1 -5 -13z"/>
<path d="M1849 6293 c-13 -16 -12 -17 4 -4 16 13 21 21 13 21 -2 0 -10 -8 -17
-17z"/>
<path d="M5554 6274 c-32 -19 -66 -42 -74 -51 -17 -18 -26 -23 88 46 45 28 60
41 49 41 -2 0 -30 -16 -63 -36z"/>
<path d="M10561 6294 c0 -11 3 -14 6 -6 3 7 2 16 -1 19 -3 4 -6 -2 -5 -13z"/>
<path d="M10311 6295 c0 -5 8 -26 19 -45 11 -19 19 -30 19 -25 0 6 -8 26 -19
45 -11 19 -19 31 -19 25z"/>
<path d="M11192 6213 c-56 -121 -114 -264 -109 -269 2 -2 14 22 27 54 13 31
47 111 76 176 30 66 52 121 50 123 -2 2 -21 -36 -44 -84z"/>
<path d="M6492 6250 c0 -19 2 -27 5 -17 2 9 2 25 0 35 -3 9 -5 1 -5 -18z"/>
<path d="M10516 6272 c-4 -7 0 -22 8 -34 17 -24 21 -9 7 26 -5 14 -10 16 -15
8z"/>
<path d="M10621 6264 c0 -11 3 -14 6 -6 3 7 2 16 -1 19 -3 4 -6 -2 -5 -13z"/>
<path d="M9880 6266 c0 -2 8 -10 18 -17 15 -13 16 -12 3 4 -13 16 -21 21 -21
13z"/>
<path d="M10571 6260 c0 -8 4 -24 9 -35 5 -13 9 -14 9 -5 0 8 -4 24 -9 35 -5
13 -9 14 -9 5z"/>
<path d="M10942 6235 c0 -16 2 -22 5 -12 2 9 2 23 0 30 -3 6 -5 -1 -5 -18z"/>
<path d="M5310 6240 c-8 -5 -10 -10 -5 -10 6 0 17 5 25 10 8 5 11 10 5 10 -5
0 -17 -5 -25 -10z"/>
<path d="M5192 6204 c-29 -7 -65 -21 -80 -29 -31 -18 -21 -16 81 15 37 11 67
23 67 25 0 7 -8 6 -68 -11z"/>
<path d="M6482 6185 c0 -16 2 -22 5 -12 2 9 2 23 0 30 -3 6 -5 -1 -5 -18z"/>
<path d="M9630 6206 c0 -2 8 -10 18 -17 15 -13 16 -12 3 4 -13 16 -21 21 -21
13z"/>
<path d="M9940 6196 c0 -2 8 -10 18 -17 15 -13 16 -12 3 4 -13 16 -21 21 -21
13z"/>
<path d="M10591 6184 c0 -11 3 -14 6 -6 3 7 2 16 -1 19 -3 4 -6 -2 -5 -13z"/>
<path d="M10793 6135 c0 -22 2 -30 4 -17 2 12 2 30 0 40 -3 9 -5 -1 -4 -23z"/>
<path d="M5030 6140 c-8 -5 -10 -10 -5 -10 6 0 17 5 25 10 8 5 11 10 5 10 -5
0 -17 -5 -25 -10z"/>
<path d="M6472 6110 c0 -14 2 -19 5 -12 2 6 2 18 0 25 -3 6 -5 1 -5 -13z"/>
<path d="M10030 6095 c19 -19 36 -35 39 -35 3 0 -10 16 -29 35 -19 19 -36 35
-39 35 -3 0 10 -16 29 -35z"/>
<path d="M12085 6045 c-27 -13 -45 -23 -40 -24 6 0 33 11 60 24 28 13 46 23
40 24 -5 0 -32 -11 -60 -24z"/>
<path d="M6401 6044 c0 -11 3 -14 6 -6 3 7 2 16 -1 19 -3 4 -6 -2 -5 -13z"/>
<path d="M5759 6033 c-13 -16 -12 -17 4 -4 9 7 17 15 17 17 0 8 -8 3 -21 -13z"/>
<path d="M5110 6030 c-8 -5 -44 -20 -80 -32 -51 -18 -60 -23 -40 -26 14 -2 30
-8 36 -13 7 -6 28 -2 56 10 34 14 47 26 50 45 6 28 1 31 -22 16z"/>
<path d="M10921 6014 c0 -11 3 -14 6 -6 3 7 2 16 -1 19 -3 4 -6 -2 -5 -13z"/>
<path d="M6391 6004 c0 -11 3 -14 6 -6 3 7 2 16 -1 19 -3 4 -6 -2 -5 -13z"/>
<path d="M10140 5975 c19 -19 36 -35 39 -35 3 0 -10 16 -29 35 -19 19 -36 35
-39 35 -3 0 10 -16 29 -35z"/>
<path d="M11960 5990 c-8 -5 -10 -10 -5 -10 6 0 17 5 25 10 8 5 11 10 5 10 -5
0 -17 -5 -25 -10z"/>
<path d="M10912 5930 c0 -19 2 -27 5 -17 2 9 2 25 0 35 -3 9 -5 1 -5 -18z"/>
<path d="M5619 5913 c-13 -16 -12 -17 4 -4 9 7 17 15 17 17 0 8 -8 3 -21 -13z"/>
<path d="M5569 5873 c-13 -16 -12 -17 4 -4 9 7 17 15 17 17 0 8 -8 3 -21 -13z"/>
<path d="M11219 5863 l-24 -28 28 24 c25 23 32 31 24 31 -2 0 -14 -12 -28 -27z"/>
<path d="M10902 5845 c0 -16 2 -22 5 -12 2 9 2 23 0 30 -3 6 -5 -1 -5 -18z"/>
<path d="M12200 5814 c-143 -45 -189 -64 -120 -49 58 13 254 76 265 86 13 12
17 14 -145 -37z"/>
<path d="M5400 5738 c-69 -55 -138 -109 -155 -119 -16 -11 -23 -19 -15 -19 8
1 36 15 62 33 72 50 254 208 237 207 -2 -1 -60 -46 -129 -102z"/>
<path d="M10961 5824 c0 -11 3 -14 6 -6 3 7 2 16 -1 19 -3 4 -6 -2 -5 -13z"/>
<path d="M7242 5788 c8 -13 50 -79 93 -148 80 -130 119 -182 69 -95 -41 74
-165 265 -171 265 -3 0 1 -10 9 -22z"/>
<path d="M5785 5718 c-37 -46 -56 -72 -42 -59 27 24 121 141 114 141 -2 0 -34
-37 -72 -82z"/>
<path d="M10951 5784 c0 -11 3 -14 6 -6 3 7 2 16 -1 19 -3 4 -6 -2 -5 -13z"/>
<path d="M10120 5757 c0 -3 42 -31 93 -62 50 -32 102 -65 115 -73 12 -8 22
-12 22 -9 0 3 -35 27 -77 54 -115 73 -153 95 -153 90z"/>
<path d="M10941 5744 c0 -11 3 -14 6 -6 3 7 2 16 -1 19 -3 4 -6 -2 -5 -13z"/>
<path d="M10931 5704 c0 -11 3 -14 6 -6 3 7 2 16 -1 19 -3 4 -6 -2 -5 -13z"/>
<path d="M5880 5538 c-54 -92 -52 -88 -47 -88 3 0 24 33 47 73 54 91 52 87 47
87 -3 0 -24 -33 -47 -72z"/>
<path d="M5639 5563 l-24 -28 28 24 c15 14 27 26 27 28 0 8 -8 1 -31 -24z"/>
<path d="M9978 5503 c7 -3 16 -2 19 1 4 3 -2 6 -13 5 -11 0 -14 -3 -6 -6z"/>
<path d="M4450 5416 c0 -2 8 -10 18 -17 15 -13 16 -12 3 4 -13 16 -21 21 -21
13z"/>
<path d="M4490 5366 c0 -2 8 -10 18 -17 15 -13 16 -12 3 4 -13 16 -21 21 -21
13z"/>
<path d="M4582 5255 c95 -120 219 -263 372 -429 152 -164 235 -265 259 -312 9
-17 23 -36 31 -43 9 -8 16 -21 16 -30 0 -10 14 -24 33 -32 22 -10 33 -22 35
-39 2 -17 14 -32 36 -44 19 -10 62 -54 97 -98 118 -149 324 -327 581 -502 54
-36 110 -69 124 -72 35 -9 59 15 50 51 -12 48 -481 509 -659 649 -44 33 -105
82 -137 108 -38 31 -64 45 -77 42 -13 -4 -23 2 -32 20 -8 13 -28 30 -45 37
-41 16 -396 373 -561 563 -169 195 -202 230 -123 131z"/>
<path d="M10608 5293 c6 -2 18 -2 25 0 6 3 1 5 -13 5 -14 0 -19 -2 -12 -5z"/>
<path d="M11787 5263 c18 -2 50 -2 70 0 21 2 7 4 -32 4 -38 0 -55 -2 -38 -4z"/>
<path d="M11943 5253 c15 -2 39 -2 55 0 15 2 2 4 -28 4 -30 0 -43 -2 -27 -4z"/>
<path d="M12058 5243 c12 -2 30 -2 40 0 9 3 -1 5 -23 4 -22 0 -30 -2 -17 -4z"/>
<path d="M12158 5233 c7 -3 16 -2 19 1 4 3 -2 6 -13 5 -11 0 -14 -3 -6 -6z"/>
<path d="M1696 5015 c7 -187 17 -263 63 -467 55 -242 124 -519 128 -514 2 2
-12 84 -31 182 -40 204 -106 576 -131 739 -31 200 -35 208 -29 60z"/>
<path d="M12450 5070 c-40 -6 -36 -7 33 -8 46 -1 77 2 77 8 0 11 -40 11 -110
0z"/>
<path d="M12098 5063 c7 -3 16 -2 19 1 4 3 -2 6 -13 5 -11 0 -14 -3 -6 -6z"/>
<path d="M12185 5050 c28 -5 70 -8 95 -8 l45 1 -50 7 c-27 5 -70 8 -95 8 l-45
-1 50 -7z"/>
<path d="M11395 4982 c6 -5 127 -75 270 -154 232 -129 346 -196 425 -247 13
-9 21 -11 17 -4 -9 15 -242 153 -472 281 -205 113 -254 138 -240 124z"/>
<path d="M1246 4925 c26 -111 94 -272 266 -635 141 -297 209 -446 222 -487 6
-17 3 -23 -8 -23 -12 0 7 -44 70 -166 82 -157 95 -194 58 -163 -42 34 -262
387 -366 587 -43 81 -76 132 -85 132 -20 0 -14 -15 45 -102 110 -164 178 -304
123 -254 -10 9 -76 100 -145 201 -70 102 -129 185 -132 185 -2 0 91 -142 206
-315 116 -174 210 -320 210 -326 0 -22 -43 16 -174 153 -75 79 -169 172 -210
208 -41 36 -78 75 -83 86 -8 21 -78 104 -88 104 -3 0 -4 -5 -2 -11 7 -32 -26
-13 -74 43 -74 88 -72 86 -64 58 4 -13 40 -54 79 -91 125 -116 496 -528 496
-549 0 -6 -4 -10 -9 -10 -20 0 -178 150 -292 277 -87 96 -130 137 -143 135
-10 -1 -26 3 -35 9 -9 7 25 -25 74 -71 50 -46 157 -150 239 -231 118 -116 147
-150 139 -161 -9 -10 11 -32 98 -103 106 -87 135 -124 87 -110 -55 16 -211
101 -293 160 -64 46 -93 61 -101 54 -9 -7 -31 -1 -73 20 -69 36 -72 36 -65 16
7 -19 8 -19 -50 1 -33 11 -51 13 -58 6 -7 -7 -25 -6 -56 3 -25 8 -47 13 -49
12 -1 -2 125 -54 280 -115 405 -162 481 -200 400 -203 l-28 -1 33 -14 c18 -8
30 -19 27 -24 -11 -19 -80 -10 -174 23 -92 31 -121 52 -84 59 10 2 -43 21
-117 41 -74 21 -167 51 -206 67 -54 21 -80 27 -101 21 -33 -9 -36 -8 102 -44
172 -46 302 -115 223 -118 -13 0 -17 -3 -10 -6 31 -12 6 -23 -60 -24 -59 -1
-43 -4 77 -15 171 -15 258 -30 297 -50 48 -25 32 -34 -59 -34 -53 0 -83 -4
-74 -9 9 -6 10 -11 2 -15 -13 -9 -265 -24 -520 -33 -165 -5 -189 -8 -165 -18
l29 -13 -25 -11 c-21 -10 -15 -11 35 -6 299 29 728 44 739 26 10 -15 -3 -19
-116 -34 -57 -8 -102 -20 -111 -29 -9 -8 -60 -24 -114 -35 -54 -12 -147 -31
-206 -43 -95 -20 -107 -25 -94 -38 13 -12 56 -7 346 47 182 34 344 61 359 61
l27 -1 -23 -19 c-34 -28 -183 -73 -369 -110 -111 -23 -163 -37 -163 -46 0 -8
-31 -23 -76 -36 -52 -15 -78 -28 -81 -39 -6 -21 15 -13 -413 -160 -336 -115
-435 -154 -214 -85 661 208 1068 338 1107 355 36 16 52 18 65 10 14 -9 42 2
141 50 68 34 126 59 129 57 15 -16 -23 -42 -155 -109 -195 -98 -262 -125 -272
-109 -5 8 -25 3 -71 -19 -283 -136 -473 -207 -715 -269 -81 -21 -133 -46 -121
-58 3 -2 51 10 107 28 64 20 105 28 111 22 6 -6 1 -16 -13 -26 -41 -28 -16
-18 152 63 207 99 637 257 660 242 12 -7 26 -3 55 17 91 62 208 132 221 132
44 0 -31 -80 -217 -230 -155 -126 -147 -118 -127 -126 12 -4 57 32 164 135 94
91 154 141 168 141 12 0 31 13 44 31 68 92 181 193 181 162 0 -10 -130 -176
-214 -273 -53 -61 -79 -84 -94 -83 -16 2 -34 -17 -77 -78 -67 -95 -147 -192
-224 -271 -53 -56 -54 -57 -22 -45 24 9 60 46 131 137 122 157 154 192 172
185 10 -4 45 36 106 119 63 85 100 126 115 128 16 2 37 27 73 87 52 87 74 108
74 72 0 -14 5 -19 15 -15 8 4 15 12 15 20 0 8 6 14 14 14 8 0 16 6 19 14 7 19
47 17 70 -2 15 -13 17 -13 17 1 0 10 8 17 20 17 23 0 498 -236 595 -295 33
-20 94 -54 135 -75 41 -21 145 -78 230 -127 85 -50 247 -139 360 -198 113 -60
273 -147 355 -195 258 -149 696 -405 1070 -625 198 -117 398 -234 445 -260 47
-27 146 -94 221 -150 75 -56 150 -111 168 -121 17 -10 34 -27 37 -37 3 -10 21
-25 40 -33 25 -11 34 -20 34 -38 0 -17 9 -27 30 -36 16 -7 78 -54 137 -106
139 -121 220 -179 423 -302 218 -132 351 -202 382 -202 115 0 -15 160 -297
365 -71 52 -177 122 -235 156 -213 124 -369 209 -383 209 -8 0 -22 9 -32 20
-10 11 -30 20 -45 20 -15 0 -56 19 -91 42 -104 67 -286 176 -404 241 -60 33
-180 103 -265 155 -149 91 -845 498 -1020 597 -47 26 -110 65 -141 86 -31 21
-175 100 -320 177 -145 76 -372 201 -503 276 -214 123 -492 272 -796 428 -113
57 -132 77 -78 79 l33 2 -34 6 c-44 8 -50 26 -14 39 17 7 21 11 11 11 -25 1
-23 28 2 36 15 5 19 12 15 25 -5 15 15 36 90 95 52 43 95 79 95 81 0 2 -62
-44 -139 -101 -121 -92 -171 -121 -171 -99 0 4 30 55 66 115 50 82 63 112 56
124 -8 15 -12 12 -31 -19 -13 -20 -27 -36 -32 -36 -21 0 -5 54 77 257 47 118
83 217 80 220 -16 17 -37 -16 -66 -104 -51 -153 -111 -303 -121 -303 -28 0 24
534 91 933 16 94 28 172 27 174 -1 1 -12 -6 -23 -15 -19 -15 -24 -50 -58 -359
-42 -379 -48 -412 -70 -425 -9 -5 -16 -15 -16 -23 0 -7 -7 -20 -15 -28 -11
-12 -15 -51 -17 -179 -3 -137 -5 -163 -18 -163 -24 0 -40 85 -49 267 -6 129
-12 170 -24 182 -8 9 -20 48 -27 88 -14 87 -18 102 -19 66 -2 -47 -20 -40 -36
14 -8 28 -15 58 -15 66 0 9 -2 13 -6 10 -3 -3 11 -95 31 -204 23 -128 33 -213
30 -239 -4 -23 0 -68 9 -105 17 -72 21 -134 7 -126 -4 3 -19 42 -32 86 -17 59
-27 80 -39 80 -12 0 -31 29 -59 90 -55 118 -142 345 -171 443 -18 60 -26 75
-36 66 -9 -8 -17 -4 -28 13 -26 40 -134 284 -247 557 -60 146 -112 267 -115
270 -3 3 -2 -8 2 -24z m488 -1431 c117 -126 154 -180 108 -155 -18 10 -240
249 -254 275 -6 11 -5 16 6 16 8 0 71 -61 140 -136z"/>
<path d="M1260 4645 c0 -5 5 -17 10 -25 5 -8 10 -10 10 -5 0 6 -5 17 -10 25
-5 8 -10 11 -10 5z"/>
<path d="M11820 4617 c0 -4 20 -18 103 -71 15 -10 27 -16 27 -13 0 4 -20 18
-102 71 -16 10 -28 16 -28 13z"/>
<path d="M11960 4526 c0 -3 9 -10 20 -16 11 -6 20 -8 20 -6 0 3 -9 10 -20 16
-11 6 -20 8 -20 6z"/>
<path d="M620 4453 c0 -6 8 -17 18 -24 16 -13 16 -13 2 6 -8 11 -16 22 -17 24
-2 2 -3 0 -3 -6z"/>
<path d="M1962 4400 c0 -19 2 -27 5 -17 2 9 2 25 0 35 -3 9 -5 1 -5 -18z"/>
<path d="M1260 4240 c12 -16 24 -30 26 -30 3 0 -4 14 -16 30 -12 17 -24 30
-26 30 -3 0 4 -13 16 -30z"/>
<path d="M2820 3683 c-92 -93 -93 -94 -22 -32 62 54 131 129 120 129 -2 0 -46
-43 -98 -97z"/>
<path d="M8182 3650 c0 -14 2 -19 5 -12 2 6 2 18 0 25 -3 6 -5 1 -5 -13z"/>
<path d="M8195 3585 c2 -22 11 -104 20 -183 22 -188 18 -411 -8 -439 -13 -16
-16 -30 -11 -66 6 -38 4 -48 -10 -53 -13 -5 -15 -14 -11 -36 4 -16 2 -34 -3
-41 -26 -31 -37 -380 -18 -583 27 -294 43 -369 75 -350 38 24 59 214 72 666
12 421 12 374 0 435 -14 74 -28 171 -52 350 -19 144 -64 397 -54 300z"/>
<path d="M475 3570 c11 -5 27 -9 35 -9 9 0 8 4 -5 9 -11 5 -27 9 -35 9 -9 0
-8 -4 5 -9z"/>
<path d="M545 3550 c11 -5 27 -9 35 -9 9 0 8 4 -5 9 -11 5 -27 9 -35 9 -9 0
-8 -4 5 -9z"/>
<path d="M2669 3543 c-13 -16 -12 -17 4 -4 16 13 21 21 13 21 -2 0 -10 -8 -17
-17z"/>
<path d="M615 3530 c11 -5 27 -9 35 -9 9 0 8 4 -5 9 -11 5 -27 9 -35 9 -9 0
-8 -4 5 -9z"/>
<path d="M708 3503 c7 -3 16 -2 19 1 4 3 -2 6 -13 5 -11 0 -14 -3 -6 -6z"/>
<path d="M628 3403 c6 -2 18 -2 25 0 6 3 1 5 -13 5 -14 0 -19 -2 -12 -5z"/>
<path d="M678 3393 c6 -2 18 -2 25 0 6 3 1 5 -13 5 -14 0 -19 -2 -12 -5z"/>
<path d="M2479 3383 c-13 -16 -12 -17 4 -4 9 7 17 15 17 17 0 8 -8 3 -21 -13z"/>
<path d="M805 3369 c49 -11 94 -18 99 -16 12 4 -151 38 -174 36 -8 -1 25 -10
75 -20z"/>
<path d="M990 3329 c41 -10 82 -18 90 -17 21 1 -121 36 -145 36 -11 0 14 -8
55 -19z"/>
<path d="M1108 3303 c6 -2 18 -2 25 0 6 3 1 5 -13 5 -14 0 -19 -2 -12 -5z"/>
<path d="M1158 3293 c7 -3 16 -2 19 1 4 3 -2 6 -13 5 -11 0 -14 -3 -6 -6z"/>
<path d="M573 3283 c9 -2 25 -2 35 0 9 3 1 5 -18 5 -19 0 -27 -2 -17 -5z"/>
<path d="M658 3273 c12 -2 32 -2 45 0 12 2 2 4 -23 4 -25 0 -35 -2 -22 -4z"/>
<path d="M753 3263 c15 -2 39 -2 55 0 15 2 2 4 -28 4 -30 0 -43 -2 -27 -4z"/>
<path d="M863 3253 c15 -2 37 -2 50 0 12 2 0 4 -28 4 -27 0 -38 -2 -22 -4z"/>
<path d="M993 3243 c9 -2 25 -2 35 0 9 3 1 5 -18 5 -19 0 -27 -2 -17 -5z"/>
<path d="M1123 3233 c9 -2 23 -2 30 0 6 3 -1 5 -18 5 -16 0 -22 -2 -12 -5z"/>
<path d="M588 3163 c23 -2 61 -2 85 0 23 2 4 4 -43 4 -47 0 -66 -2 -42 -4z"/>
<path d="M1118 3153 c12 -2 30 -2 40 0 9 3 -1 5 -23 4 -22 0 -30 -2 -17 -4z"/>
<path d="M1243 3143 c9 -2 25 -2 35 0 9 3 1 5 -18 5 -19 0 -27 -2 -17 -5z"/>
<path d="M783 3013 c9 -2 23 -2 30 0 6 3 -1 5 -18 5 -16 0 -22 -2 -12 -5z"/>
<path d="M728 3003 c6 -2 18 -2 25 0 6 3 1 5 -13 5 -14 0 -19 -2 -12 -5z"/>
<path d="M678 2993 c6 -2 18 -2 25 0 6 3 1 5 -13 5 -14 0 -19 -2 -12 -5z"/>
<path d="M638 2983 c7 -3 16 -2 19 1 4 3 -2 6 -13 5 -11 0 -14 -3 -6 -6z"/>
<path d="M408 2910 c-9 -6 -40 -16 -70 -24 -40 -10 -52 -18 -50 -31 2 -9 -3
-24 -10 -32 -7 -9 12 -2 42 15 30 17 74 34 98 38 32 5 42 10 38 21 -4 8 -6 17
-6 19 0 7 -25 4 -42 -6z"/>
<path d="M888 2863 c7 -3 16 -2 19 1 4 3 -2 6 -13 5 -11 0 -14 -3 -6 -6z"/>
<path d="M750 2835 c-47 -13 -78 -23 -70 -24 8 0 56 10 105 23 50 13 81 24 70
24 -11 0 -58 -10 -105 -23z"/>
<path d="M638 2803 c7 -3 16 -2 19 1 4 3 -2 6 -13 5 -11 0 -14 -3 -6 -6z"/>
<path d="M588 2793 c6 -2 18 -2 25 0 6 3 1 5 -13 5 -14 0 -19 -2 -12 -5z"/>
<path d="M548 2783 c7 -3 16 -2 19 1 4 3 -2 6 -13 5 -11 0 -14 -3 -6 -6z"/>
<path d="M498 2773 c7 -3 16 -2 19 1 4 3 -2 6 -13 5 -11 0 -14 -3 -6 -6z"/>
<path d="M351 2745 c-84 -22 -121 -35 -95 -35 21 1 227 58 209 59 -11 0 -62
-11 -114 -24z"/>
<path d="M133 2719 c-63 -40 -30 -64 47 -34 32 12 33 14 9 14 -33 1 -42 10
-28 28 15 18 10 16 -28 -8z"/>
</g>
</svg>
