<?xml version="1.0" standalone="no"?>
<!DOCTYPE svg PUBLIC "-//W3C//DTD SVG 20010904//EN"
 "http://www.w3.org/TR/2001/REC-SVG-20010904/DTD/svg10.dtd">
<svg version="1.0" xmlns="http://www.w3.org/2000/svg"
 width="113.000000pt" height="113.000000pt" viewBox="0 0 113.000000 113.000000"
 preserveAspectRatio="xMidYMid meet">
<metadata>
Created by potrace 1.15, written by Peter Selinger 2001-2017
</metadata>
<g transform="translate(0.000000,113.000000) scale(0.100000,-0.100000)"
fill="#000000" stroke="none">
<path d="M543 921 l6 -112 -42 38 c-66 60 -117 96 -125 88 -4 -4 4 -15 18 -23
14 -9 48 -38 75 -65 42 -40 46 -46 23 -37 -44 15 -79 40 -135 94 -29 28 -53
46 -53 40 0 -20 34 -57 92 -100 33 -24 56 -44 50 -44 -21 0 -105 41 -148 72
-56 40 -68 31 -15 -11 45 -36 104 -64 182 -86 l54 -15 -70 4 c-39 2 -94 14
-124 26 -69 27 -91 19 -27 -10 52 -24 176 -44 214 -35 12 3 22 1 22 -3 0 -5
-20 -52 -44 -103 -24 -52 -74 -192 -111 -312 -59 -191 -66 -220 -53 -233 32
-32 67 49 68 157 0 60 66 267 125 392 l46 98 47 -40 c77 -64 182 -109 223 -96
30 10 22 22 -12 17 -36 -5 -161 53 -198 92 l-23 25 63 -26 c66 -27 160 -40
203 -29 47 12 27 22 -36 18 -35 -2 -79 1 -98 6 -29 9 -19 10 68 11 65 1 102 5
102 12 0 7 -20 8 -57 5 l-58 -6 57 18 c62 19 92 39 43 28 -95 -19 -184 -28
-220 -21 l-40 7 43 13 c24 7 70 16 102 20 33 4 60 11 60 16 0 5 -6 9 -14 9
-17 0 -162 -27 -188 -35 -35 -12 -18 10 63 80 44 38 75 71 69 73 -6 2 -47 -29
-91 -68 -44 -40 -83 -70 -86 -66 -8 7 22 73 64 143 17 29 27 53 22 53 -11 0
-57 -71 -83 -129 -26 -56 -36 -38 -36 66 0 51 -4 85 -12 89 -8 5 -10 -21 -5
-105z"/>
</g>
</svg>
