<?xml version="1.0" standalone="no"?>
<!DOCTYPE svg PUBLIC "-//W3C//DTD SVG 20010904//EN"
 "http://www.w3.org/TR/2001/REC-SVG-20010904/DTD/svg10.dtd">
<svg version="1.0" xmlns="http://www.w3.org/2000/svg"
 width="200.000000pt" height="271.000000pt" viewBox="0 0 200.000000 271.000000"
 preserveAspectRatio="xMidYMid meet">
<metadata>
Created by potrace 1.15, written by Peter Selinger 2001-2017
</metadata>
<g transform="translate(0.000000,271.000000) scale(0.100000,-0.100000)"
fill="#000000" stroke="none">
<path d="M1150 2595 c-7 -8 -16 -12 -21 -9 -5 3 -8 0 -7 -7 5 -21 -32 -22 -54
-2 -21 18 -21 18 -7 -4 15 -25 10 -33 -19 -36 -12 0 -19 -3 -17 -5 2 -2 -7
-15 -21 -29 -32 -32 -30 -37 6 -18 35 18 43 19 34 3 -4 -8 -3 -10 2 -5 5 5 9
13 9 19 0 6 10 14 21 19 19 7 29 -3 81 -79 74 -107 77 -116 52 -138 -16 -14
-23 -15 -45 -6 -39 18 -42 14 -6 -8 18 -11 31 -24 28 -29 -9 -13 -101 -22
-156 -15 -33 4 -47 10 -43 18 4 6 0 5 -9 -2 -12 -9 -31 -11 -62 -7 l-44 7 5
37 c3 24 2 32 -5 23 -7 -10 -11 -2 -16 27 -3 22 -11 43 -17 47 -8 5 -10 -2 -6
-22 l5 -29 -18 23 c-31 38 -32 24 0 -20 30 -41 39 -65 20 -53 -5 3 -10 1 -10
-5 0 -6 -5 -8 -11 -4 -19 12 -79 22 -73 13 3 -5 14 -9 25 -9 11 0 34 -8 52
-17 l32 -18 -55 -6 -55 -5 45 -5 45 -4 -30 -17 c-16 -10 -25 -17 -20 -18 6 0
21 7 33 16 33 23 37 12 13 -35 -25 -48 -27 -62 -5 -35 8 10 13 14 10 7 -3 -6
-2 -22 3 -35 l10 -23 0 25 c0 14 4 43 9 65 l8 40 7 -37 c5 -21 12 -38 17 -38
5 0 3 21 -5 48 -8 26 -15 48 -15 50 0 2 16 0 37 -4 40 -7 66 -9 193 -12 75 -2
82 -4 65 -16 -11 -8 -39 -19 -63 -26 -23 -7 -40 -15 -38 -18 3 -2 21 1 41 8
58 19 52 4 -11 -29 -40 -21 -49 -29 -29 -24 17 3 41 13 55 21 14 8 8 0 -12
-18 -21 -18 -38 -37 -38 -44 0 -7 -23 -31 -51 -54 l-52 -42 -27 43 -27 42 21
25 c17 21 16 21 -9 -3 -25 -23 -27 -29 -15 -37 8 -5 11 -12 7 -16 -4 -4 -13
-2 -19 4 -17 17 -33 15 -19 -1 6 -8 8 -17 4 -20 -3 -4 0 -7 8 -7 9 0 24 -7 35
-16 18 -14 18 -15 -6 -9 -17 4 -21 3 -12 -3 10 -7 6 -12 -18 -22 -17 -7 -29
-15 -26 -17 2 -2 18 3 35 11 16 9 35 16 40 16 16 0 6 -55 -14 -87 -14 -21 -15
-25 -3 -15 9 7 21 26 28 42 15 36 30 30 30 -13 0 -19 3 -27 8 -20 4 7 18 11
30 8 14 -2 20 0 16 6 -3 6 -9 8 -12 5 -8 -8 -33 30 -38 58 -3 20 11 36 88 100
50 42 93 74 95 72 3 -2 -2 -17 -11 -33 -31 -60 -96 -267 -120 -381 -23 -108
-46 -286 -61 -476 l-7 -78 -36 33 -37 34 37 -40 36 -40 5 -300 c5 -269 19
-448 43 -560 6 -27 5 -28 -10 -16 -20 17 -20 17 4 -48 12 -29 24 -89 27 -132
5 -72 8 -80 29 -85 13 -3 144 -3 291 0 147 3 353 5 456 6 l188 0 -18 24 c-16
21 -19 22 -24 8 -8 -19 -11 -13 -25 43 -8 34 -8 32 0 65 7 24 6 24 -8 6 -9
-11 -16 -35 -16 -54 0 -30 -2 -33 -15 -22 -19 16 -19 33 1 72 l17 32 -26 -17
c-24 -15 -25 -15 -31 6 -3 12 -6 38 -7 57 l-2 35 -6 -40 c-4 -22 -3 -60 1 -84
10 -59 2 -64 -12 -9 -26 92 -28 97 -30 53 -1 -40 -1 -40 -15 -15 -14 24 -14
24 -16 -25 -1 -27 -5 -63 -9 -80 l-7 -30 -8 38 c-7 34 -4 65 11 147 3 19 2 18
-7 -5 -6 -16 -13 -37 -15 -45 -3 -8 -13 8 -23 38 -23 68 -45 92 -26 28 15 -49
24 -180 14 -190 -3 -4 -13 -4 -22 0 -21 8 -34 57 -43 164 -7 86 -20 126 -56
164 -13 14 -17 28 -13 45 20 78 56 274 69 372 21 155 24 282 11 389 -6 50 -8
90 -3 90 4 0 8 -4 8 -8 0 -5 8 -17 18 -28 10 -10 28 -34 41 -52 l23 -33 -20
-19 c-11 -10 -23 -17 -26 -14 -3 2 -4 1 -1 -3 3 -3 0 -12 -6 -20 -7 -8 -8 -13
-1 -13 5 0 15 7 22 15 7 8 16 13 20 10 5 -3 11 -1 15 5 4 6 11 8 16 5 5 -4 9
0 9 7 0 8 17 24 38 36 39 23 32 29 -14 11 -26 -9 -27 -9 -14 8 8 11 5 9 -7 -4
-19 -20 -22 -21 -35 -6 -11 13 -11 17 0 21 7 2 17 15 23 29 5 13 13 21 19 18
5 -3 10 -1 10 6 0 7 10 23 22 36 l22 23 -25 -2 c-22 -3 -42 -24 -75 -80 -10
-17 -12 -17 -29 2 -10 11 -19 29 -20 39 -1 11 -7 27 -15 36 -27 32 -21 45 18
41 21 -2 29 -1 19 1 -27 7 -74 33 -59 33 10 0 9 4 -2 16 -23 22 -20 34 17 74
l32 35 -37 -34 c-43 -40 -78 -50 -79 -23 0 12 -3 10 -11 -8 -6 -15 -12 -20
-15 -12 -3 6 -8 10 -12 8 -4 -3 -34 22 -66 55 -35 36 -55 63 -48 67 6 4 13 17
17 30 4 12 11 20 16 17 5 -3 6 -13 3 -23 -4 -13 -3 -14 6 -6 9 8 8 17 -3 38
-13 27 -14 27 -21 7 -3 -12 -10 -19 -15 -16 -4 3 -10 -5 -14 -18 -5 -17 -8
-19 -15 -9 -6 11 -9 9 -14 -7 -2 -11 -19 -29 -36 -39 -24 -15 -28 -21 -17 -25
9 -3 18 -2 21 3 4 6 11 10 17 10 6 0 3 -10 -8 -22 l-19 -23 22 19 c13 10 20
22 18 26 -3 4 3 11 12 14 12 5 33 -9 70 -46 66 -65 73 -85 42 -111 -15 -12
-18 -17 -7 -14 9 3 22 -1 28 -9 7 -8 21 -14 31 -14 14 0 19 -7 19 -25 0 -15
11 -36 25 -49 24 -22 26 -32 31 -147 7 -140 -11 -325 -51 -535 -24 -127 -34
-159 -36 -113 l0 24 -10 -24 c-5 -14 -7 -37 -4 -52 8 -37 -31 -179 -57 -204
l-20 -20 6 30 c4 20 1 37 -8 50 -15 20 -15 20 -15 0 -2 -94 -39 -194 -77 -209
-40 -15 -44 -8 -44 69 0 95 14 161 56 255 38 87 50 141 36 165 -7 14 -10 8
-14 -27 -3 -28 -21 -72 -48 -116 -31 -53 -45 -90 -53 -142 -6 -39 -15 -70 -19
-70 -16 0 -8 128 12 185 32 93 36 155 14 233 l-19 67 -6 -115 c-3 -64 -13
-130 -21 -150 l-14 -35 -12 75 c-7 41 -16 123 -22 181 -11 126 -25 172 -70
228 -34 42 -120 118 -120 106 0 -3 13 -23 29 -43 79 -100 139 -279 149 -442 8
-146 8 -197 0 -205 -4 -4 -22 2 -40 13 -18 12 -51 30 -74 40 -38 18 -42 23
-48 71 -5 37 -2 59 9 80 8 17 15 36 14 43 0 7 -5 2 -10 -12 -8 -20 -12 -22
-19 -10 -10 18 -30 355 -30 508 0 113 0 113 23 107 21 -6 21 -5 3 9 -17 14
-19 25 -13 128 12 191 69 538 89 538 5 0 26 11 46 25 20 14 43 25 52 25 8 0
-2 -11 -23 -25 -20 -14 -37 -28 -37 -31 0 -3 14 4 31 16 36 26 43 22 29 -14
-5 -15 -10 -33 -9 -39 0 -7 9 12 20 41 11 29 24 50 28 48 4 -3 4 -30 1 -60 -3
-31 -3 -53 1 -49 4 5 9 28 11 53 l4 45 22 -47 c13 -27 25 -48 27 -48 6 0 -10
41 -30 80 l-16 31 38 -16 c21 -9 42 -20 48 -26 5 -5 13 -9 19 -9 5 0 1 6 -9
14 -18 13 -18 13 1 24 17 10 16 11 -11 12 -16 0 -37 5 -45 10 -11 8 -4 9 25 6
22 -2 29 -1 15 2 -22 5 -20 7 15 13 35 7 33 7 -15 4 -30 -2 -63 -7 -74 -11
-19 -7 -19 6 0 238 6 70 19 80 43 35 l12 -22 -5 22 c-11 57 38 22 91 -63 42
-70 44 -79 19 -81 -54 -4 -76 -9 -76 -15 0 -5 -11 -8 -24 -8 -14 0 -28 -5 -32
-12 -5 -7 -3 -8 6 -3 8 5 11 3 8 -6 -3 -8 -12 -13 -20 -13 -8 1 -15 -5 -15
-12 0 -10 8 -9 31 5 17 10 39 16 49 14 9 -3 17 0 17 5 0 9 89 37 95 30 1 -2 8
-14 15 -28 11 -21 11 -26 -5 -35 -10 -5 -28 -19 -39 -30 -12 -11 -15 -15 -6
-9 35 25 46 28 29 8 -9 -10 -22 -30 -29 -44 -12 -22 -12 -24 3 -12 13 11 16
10 20 -5 2 -10 3 -9 2 5 -1 12 1 22 5 22 4 0 10 9 13 20 3 13 10 18 21 14 11
-4 16 -1 16 12 0 15 4 14 27 -7 25 -22 26 -22 9 -1 -14 17 -16 22 -5 22 12 0
12 2 1 9 -10 6 -6 11 17 19 17 6 31 17 32 24 0 7 2 21 4 31 2 9 -1 15 -6 11
-5 -3 -7 -9 -5 -13 3 -4 -9 -18 -27 -31 -18 -13 -26 -17 -20 -8 7 8 9 19 5 23
-4 5 0 5 8 0 8 -5 12 -4 7 0 -4 5 2 19 14 31 l21 22 -22 30 c-22 30 -22 62 0
62 6 0 8 -6 4 -12 -4 -7 -3 -10 1 -5 5 4 10 16 12 27 4 25 -35 23 -43 -2 -3
-10 -17 -32 -31 -49 -30 -35 -39 -76 -17 -76 8 0 14 6 14 13 0 6 8 22 18 34
l17 22 19 -21 c18 -19 17 -21 -20 -65 -45 -54 -39 -58 -117 76 -32 53 -62 100
-67 103 -21 13 -9 27 17 20 16 -4 24 -3 20 1 -4 4 3 14 15 21 l23 12 -24 1
c-19 0 -21 3 -12 14 9 11 6 12 -14 8 -17 -3 -25 0 -25 10 0 17 28 44 92 86
l46 32 20 -34 c11 -19 30 -56 42 -83 18 -41 23 -46 31 -30 8 13 6 25 -6 43
-15 24 -15 27 1 52 l17 27 -22 -19 c-25 -23 -26 -22 -39 26 -9 33 -8 39 11 53
l22 16 -23 -11 c-28 -14 -76 10 -139 68 -35 32 -41 20 -8 -14 l28 -28 -19 -35
c-28 -51 -73 -111 -84 -111 -5 0 -7 23 -5 53 5 50 0 48 -20 -10 -9 -27 -35
-31 -36 -5 0 11 -2 12 -6 4 -5 -12 -143 171 -143 190 0 4 6 8 13 8 7 0 21 16
30 35 18 38 17 44 -3 20z m60 -509 c0 -3 -4 -16 -10 -30 -6 -17 -6 -26 0 -26
6 0 10 5 10 10 0 6 5 10 11 10 7 0 9 -11 6 -30 -4 -16 -3 -31 1 -34 4 -2 5
-30 4 -61 -4 -55 -5 -57 -30 -50 -14 3 -28 2 -31 -3 -9 -13 -71 -23 -71 -12 0
6 4 10 10 10 5 0 7 6 4 13 -6 17 54 189 70 199 12 9 26 10 26 4z"/>
<path d="M214 720 l2 -56 -38 0 c-21 0 -35 2 -30 5 4 3 -7 19 -25 34 -40 35
-44 28 -6 -8 34 -31 13 -33 -30 -3 -26 18 -29 19 -17 3 8 -10 34 -27 58 -37
50 -23 54 -29 10 -18 -91 23 -86 23 -56 6 15 -9 50 -17 77 -19 28 -1 51 -6 51
-10 0 -4 -10 -27 -22 -50 -34 -66 -98 -280 -87 -292 14 -14 29 13 29 51 0 47
70 257 97 293 2 3 13 -5 26 -16 31 -29 82 -53 109 -52 16 0 11 4 -17 13 -41
13 -99 46 -92 52 2 3 20 -3 40 -11 20 -8 53 -14 74 -14 l38 2 -40 7 -40 7 45
2 c35 2 41 4 25 11 -17 7 -17 9 -2 9 9 1 17 5 17 11 0 6 -9 6 -26 0 -33 -13
-128 -13 -99 0 11 5 32 9 47 9 15 1 30 6 34 12 4 7 0 9 -12 6 -46 -13 -90 -16
-103 -8 -12 7 -9 18 14 58 16 26 21 42 13 35 -9 -7 -21 -26 -28 -42 -18 -43
-28 -37 -33 18 -4 41 -4 40 -3 -8z"/>
<path d="M686 301 c8 -37 -7 -79 -49 -145 l-32 -51 -5 65 -6 65 -8 -54 -9 -54
-17 54 c-16 54 -49 114 -57 105 -3 -2 3 -18 11 -34 14 -28 14 -33 -1 -59 -15
-28 -15 -32 9 -85 24 -51 25 -58 11 -77 l-14 -21 251 0 252 0 -6 52 c-4 29 -7
71 -7 93 0 36 -1 38 -11 18 -16 -34 -30 -28 -23 11 4 20 2 36 -4 40 -7 5 -11
-4 -11 -24 0 -43 -23 -34 -30 11 l-6 34 -7 -28 c-7 -27 -8 -27 -40 -12 l-32
16 35 -30 c26 -22 32 -33 24 -41 -8 -8 -14 -9 -18 -1 -4 6 -12 11 -17 11 -6 0
-3 -10 5 -22 20 -28 20 -54 1 -62 -10 -3 -15 1 -15 14 0 10 -12 32 -26 50 -31
37 -28 69 12 129 14 22 24 46 21 53 -4 9 -6 8 -6 -3 -1 -8 -12 -26 -26 -39
-28 -27 -41 -63 -49 -142 -9 -82 -13 -91 -36 -70 -10 9 -20 28 -23 42 -2 14
-5 0 -6 -30 -1 -46 -3 -52 -15 -40 -7 8 -16 36 -20 62 -5 41 -3 49 16 63 l22
15 -22 0 c-26 0 -26 -1 -6 39 16 33 13 94 -6 106 -6 4 -7 -6 -4 -24z"/>
<path d="M244 193 c0 -30 -7 -50 -29 -79 l-30 -39 -6 45 c-6 42 -6 43 -8 10
l-2 -35 -23 50 -22 50 3 -65 c1 -36 4 -77 5 -92 l3 -28 148 0 c86 0 146 4 143
9 -9 14 5 42 16 35 5 -4 8 -15 5 -25 -4 -15 0 -19 23 -19 28 0 29 1 14 28 -7
15 -14 50 -15 77 l-1 50 -11 -35 -10 -35 -7 30 c-4 17 -8 22 -9 13 -2 -26 -21
-22 -22 5 -1 16 -3 17 -6 5 -3 -11 -10 -15 -21 -11 -14 5 -14 3 3 -17 17 -20
17 -22 3 -17 -15 5 -16 1 -11 -23 3 -19 1 -30 -6 -30 -6 0 -11 9 -11 20 0 11
-7 23 -15 26 -22 9 -18 50 7 84 12 16 20 32 17 34 -12 12 -50 -67 -56 -113 -7
-60 -19 -73 -33 -37 -14 37 -23 32 -16 -9 4 -22 3 -35 -3 -35 -23 0 -25 71 -5
152 3 14 2 34 -4 44 -7 13 -9 8 -8 -23z"/>
</g>
</svg>
